<svg width="18" height="18" viewBox="0 0 18 18" fill="none" xmlns="http://www.w3.org/2000/svg">
<path d="M9 0.834961C13.5094 0.834961 17.165 4.49059 17.165 9C17.165 13.5094 13.5094 17.165 9 17.165C4.49059 17.165 0.834961 13.5094 0.834961 9C0.834961 4.49059 4.49059 0.834961 9 0.834961ZM9 3.29004C8.53884 3.29004 8.16504 3.66384 8.16504 4.125V9C8.16504 9.29325 8.31889 9.5649 8.57031 9.71582L12.3203 11.9658C12.7157 12.2031 13.2285 12.075 13.4658 11.6797C13.7031 11.2843 13.575 10.7715 13.1797 10.5342L9.83496 8.52734V4.125C9.83496 3.66384 9.46116 3.29004 9 3.29004Z" stroke="currentColor" stroke-width="1.67" stroke-linecap="round" stroke-linejoin="round"/>
</svg>
