<svg width="29" height="29" viewBox="0 0 29 29" fill="none" xmlns="http://www.w3.org/2000/svg">
<path d="M16.3916 27.2618H12.1055" stroke="currentColor" stroke-width="2.5" stroke-linecap="round" stroke-linejoin="round"/>
<path d="M14.2477 8.21875V12.5048" stroke="currentColor" stroke-width="2.5" stroke-linecap="round" stroke-linejoin="round"/>
<path fill-rule="evenodd" clip-rule="evenodd" d="M27.25 20.7467V20.7467C27.25 22.464 25.8577 23.8563 24.1404 23.8563H4.3596C2.6423 23.8563 1.25 22.464 1.25 20.7467C1.25 19.7509 1.7258 18.8175 2.5305 18.2312C3.9722 17.1834 4.825 15.509 4.825 13.7267V11.0214C4.825 6.01508 8.5794 1.62238 13.5727 1.27398C16.4405 1.07248 19.0548 2.15408 20.919 4.01828C22.622 5.71998 23.675 8.07428 23.675 10.6743V13.7267C23.675 15.509 24.5278 17.1834 25.9695 18.2312C26.7742 18.8175 27.25 19.7509 27.25 20.7467Z" stroke="currentColor" stroke-width="2.5" stroke-linecap="round"/>
</svg>
