<svg width="15" height="15" viewBox="0 0 15 15" fill="none" xmlns="http://www.w3.org/2000/svg">
<path d="M0.833008 2.50016C0.833008 2.05814 1.0086 1.63421 1.32116 1.32165C1.63372 1.00909 2.05765 0.833496 2.49967 0.833496H4.16634C4.60837 0.833496 5.03229 1.00909 5.34485 1.32165C5.65741 1.63421 5.83301 2.05814 5.83301 2.50016V3.3335C5.83301 3.77552 5.65741 4.19945 5.34485 4.51201C5.03229 4.82457 4.60837 5.00016 4.16634 5.00016H2.49967C2.05765 5.00016 1.63372 4.82457 1.32116 4.51201C1.0086 4.19945 0.833008 3.77552 0.833008 3.3335V2.50016Z" stroke="currentColor" stroke-width="1.66667" stroke-linecap="round" stroke-linejoin="round"/>
<path d="M0.833008 10.0002C0.833008 9.55814 1.0086 9.13421 1.32116 8.82165C1.63372 8.50909 2.05765 8.3335 2.49967 8.3335H4.16634C4.60837 8.3335 5.03229 8.50909 5.34485 8.82165C5.65741 9.13421 5.83301 9.55814 5.83301 10.0002V12.5002C5.83301 12.9422 5.65741 13.3661 5.34485 13.6787C5.03229 13.9912 4.60837 14.1668 4.16634 14.1668H2.49967C2.05765 14.1668 1.63372 13.9912 1.32116 13.6787C1.0086 13.3661 0.833008 12.9422 0.833008 12.5002V10.0002Z" stroke="currentColor" stroke-width="1.66667" stroke-linecap="round" stroke-linejoin="round"/>
<path d="M9.16634 2.50016C9.16634 2.05814 9.34194 1.63421 9.6545 1.32165C9.96706 1.00909 10.391 0.833496 10.833 0.833496H12.4997C12.9417 0.833496 13.3656 1.00909 13.6782 1.32165C13.9907 1.63421 14.1663 2.05814 14.1663 2.50016V5.00016C14.1663 5.44219 13.9907 5.86611 13.6782 6.17867C13.3656 6.49123 12.9417 6.66683 12.4997 6.66683H10.833C10.391 6.66683 9.96706 6.49123 9.6545 6.17867C9.34194 5.86611 9.16634 5.44219 9.16634 5.00016V2.50016Z" stroke="currentColor" stroke-width="1.66667" stroke-linecap="round" stroke-linejoin="round"/>
<path d="M9.16634 11.6668C9.16634 11.2248 9.34194 10.8009 9.6545 10.4883C9.96706 10.1758 10.391 10.0002 10.833 10.0002H12.4997C12.9417 10.0002 13.3656 10.1758 13.6782 10.4883C13.9907 10.8009 14.1663 11.2248 14.1663 11.6668V12.5002C14.1663 12.9422 13.9907 13.3661 13.6782 13.6787C13.3656 13.9912 12.9417 14.1668 12.4997 14.1668H10.833C10.391 14.1668 9.96706 13.9912 9.6545 13.6787C9.34194 13.3661 9.16634 12.9422 9.16634 12.5002V11.6668Z" stroke="currentColor" stroke-width="1.66667" stroke-linecap="round" stroke-linejoin="round"/>
</svg>
