<svg width="15" height="20" viewBox="0 0 15 20" fill="none" xmlns="http://www.w3.org/2000/svg">
<path d="M8.74512 0.0136719C9.84084 0.125068 10.7336 0.914777 11.002 1.95605H12C13.6568 1.95605 14.9999 3.29928 15 4.95605V16.5645C15 18.1695 13.7394 19.4802 12.1543 19.5605L12 19.5645H3L2.8457 19.5605C1.26057 19.4802 0 18.1695 0 16.5645V4.95605C9.17606e-05 3.29928 1.3432 1.95605 3 1.95605H3.3457C3.63551 0.831403 4.65404 0.000193574 5.86914 0H8.47852L8.74512 0.0136719ZM10.8916 3.59473C10.5346 4.46752 9.72022 5.10498 8.74512 5.2041L8.47852 5.21777H5.86914L5.60254 5.2041C4.62845 5.10508 3.81369 4.46914 3.45605 3.59766C3.45989 3.607 3.46286 3.61669 3.4668 3.62598H3C2.26552 3.62598 1.67001 4.2216 1.66992 4.95605V16.5645C1.66992 17.299 2.26546 17.8945 3 17.8945H12C12.7345 17.8945 13.3301 17.299 13.3301 16.5645V4.95605C13.33 4.22159 12.7345 3.62598 12 3.62598H10.8809C10.8852 3.61586 10.8874 3.60491 10.8916 3.59473ZM3.58691 13.043C4.12719 13.043 4.56543 13.4812 4.56543 14.0215C4.56536 14.5617 4.12715 15 3.58691 15C3.0467 15 2.60847 14.5617 2.6084 14.0215C2.6084 13.4812 3.04666 13.043 3.58691 13.043ZM10.7607 13.043C11.301 13.043 11.7393 13.4812 11.7393 14.0215C11.7392 14.5617 11.301 15 10.7607 15H7.5C6.95976 15 6.52155 14.5617 6.52148 14.0215C6.52148 13.4812 6.95972 13.043 7.5 13.043H10.7607ZM3.58691 8.47754C4.12716 8.47754 4.56538 8.91582 4.56543 9.45605C4.56543 9.99633 4.12719 10.4346 3.58691 10.4346C3.04666 10.4345 2.6084 9.99632 2.6084 9.45605C2.60844 8.91583 3.04668 8.47756 3.58691 8.47754ZM10.7607 8.47754C11.301 8.47754 11.7392 8.91582 11.7393 9.45605C11.7393 9.99633 11.301 10.4346 10.7607 10.4346H7.5C6.95972 10.4346 6.52148 9.99633 6.52148 9.45605C6.52153 8.91582 6.95975 8.47754 7.5 8.47754H10.7607ZM5.86914 1.66992C5.35101 1.67015 4.93082 2.09025 4.93066 2.6084C4.93087 3.12651 5.35103 3.54762 5.86914 3.54785H8.47852C8.99664 3.54765 9.41679 3.12652 9.41699 2.6084C9.41683 2.09024 8.99667 1.67013 8.47852 1.66992H5.86914ZM3.37305 3.36523C3.38004 3.38833 3.38887 3.41077 3.39648 3.43359C3.38887 3.41077 3.38004 3.38833 3.37305 3.36523ZM10.9531 3.42578C10.9598 3.40556 10.9674 3.38567 10.9736 3.36523C10.9674 3.38567 10.9598 3.40556 10.9531 3.42578ZM3.31152 3.11914C3.31728 3.14811 3.32532 3.17646 3.33203 3.20508C3.32533 3.17646 3.31728 3.14811 3.31152 3.11914ZM11.0195 3.18555C11.0245 3.1637 11.0308 3.14216 11.0352 3.12012C11.0308 3.14216 11.0245 3.1637 11.0195 3.18555ZM11.0869 2.6084C11.0869 2.53929 11.0829 2.47097 11.0771 2.40332C11.0824 2.47091 11.0869 2.53946 11.0869 2.6084ZM11.0664 2.29883C11.0637 2.27759 11.0608 2.25643 11.0576 2.23535C11.0606 2.25647 11.0639 2.27755 11.0664 2.29883Z" fill="currentColor"/>
<path d="M8.74512 0.0136719C9.84084 0.125068 10.7336 0.914777 11.002 1.95605H12C13.6568 1.95605 14.9999 3.29928 15 4.95605V16.5645C15 18.1695 13.7394 19.4802 12.1543 19.5605L12 19.5645H3L2.8457 19.5605C1.26057 19.4802 0 18.1695 0 16.5645V4.95605C9.17606e-05 3.29928 1.3432 1.95605 3 1.95605H3.3457C3.63551 0.831403 4.65404 0.000193574 5.86914 0H8.47852L8.74512 0.0136719ZM10.8916 3.59473C10.5346 4.46752 9.72022 5.10498 8.74512 5.2041L8.47852 5.21777H5.86914L5.60254 5.2041C4.62845 5.10508 3.81369 4.46914 3.45605 3.59766C3.45989 3.607 3.46286 3.61669 3.4668 3.62598H3C2.26552 3.62598 1.67001 4.2216 1.66992 4.95605V16.5645C1.66992 17.299 2.26546 17.8945 3 17.8945H12C12.7345 17.8945 13.3301 17.299 13.3301 16.5645V4.95605C13.33 4.22159 12.7345 3.62598 12 3.62598H10.8809C10.8852 3.61586 10.8874 3.60491 10.8916 3.59473ZM3.58691 13.043C4.12719 13.043 4.56543 13.4812 4.56543 14.0215C4.56536 14.5617 4.12715 15 3.58691 15C3.0467 15 2.60847 14.5617 2.6084 14.0215C2.6084 13.4812 3.04666 13.043 3.58691 13.043ZM10.7607 13.043C11.301 13.043 11.7393 13.4812 11.7393 14.0215C11.7392 14.5617 11.301 15 10.7607 15H7.5C6.95976 15 6.52155 14.5617 6.52148 14.0215C6.52148 13.4812 6.95972 13.043 7.5 13.043H10.7607ZM3.58691 8.47754C4.12716 8.47754 4.56538 8.91582 4.56543 9.45605C4.56543 9.99633 4.12719 10.4346 3.58691 10.4346C3.04666 10.4345 2.6084 9.99632 2.6084 9.45605C2.60844 8.91583 3.04668 8.47756 3.58691 8.47754ZM10.7607 8.47754C11.301 8.47754 11.7392 8.91582 11.7393 9.45605C11.7393 9.99633 11.301 10.4346 10.7607 10.4346H7.5C6.95972 10.4346 6.52148 9.99633 6.52148 9.45605C6.52153 8.91582 6.95975 8.47754 7.5 8.47754H10.7607ZM5.86914 1.66992C5.35101 1.67015 4.93082 2.09025 4.93066 2.6084C4.93087 3.12651 5.35103 3.54762 5.86914 3.54785H8.47852C8.99664 3.54765 9.41679 3.12652 9.41699 2.6084C9.41683 2.09024 8.99667 1.67013 8.47852 1.66992H5.86914ZM3.37305 3.36523C3.38004 3.38833 3.38887 3.41077 3.39648 3.43359C3.38887 3.41077 3.38004 3.38833 3.37305 3.36523ZM10.9531 3.42578C10.9598 3.40556 10.9674 3.38567 10.9736 3.36523C10.9674 3.38567 10.9598 3.40556 10.9531 3.42578ZM3.31152 3.11914C3.31728 3.14811 3.32532 3.17646 3.33203 3.20508C3.32533 3.17646 3.31728 3.14811 3.31152 3.11914ZM11.0195 3.18555C11.0245 3.1637 11.0308 3.14216 11.0352 3.12012C11.0308 3.14216 11.0245 3.1637 11.0195 3.18555ZM11.0869 2.6084C11.0869 2.53929 11.0829 2.47097 11.0771 2.40332C11.0824 2.47091 11.0869 2.53946 11.0869 2.6084ZM11.0664 2.29883C11.0637 2.27759 11.0608 2.25643 11.0576 2.23535C11.0606 2.25647 11.0639 2.27755 11.0664 2.29883Z" fill="currentColor"/>
</svg>
