<svg width="14" height="16" viewBox="0 0 14 16" fill="none" xmlns="http://www.w3.org/2000/svg">
<rect x="3.70215" y="4.86377" width="9.40844" height="10.6365" rx="1.5" stroke="currentColor" />
<rect x="3.70215" y="4.86377" width="9.40844" height="10.6365" rx="1.5" stroke="currentColor"/>
<path d="M8.4082 0C9.51273 5.18693e-05 10.4082 0.895463 10.4082 2V4.36621H9.4082V2C9.4082 1.44775 8.96044 1.00005 8.4082 1H2C1.44771 1 1 1.44772 1 2V9.63672C1.00014 10.1889 1.4478 10.6367 2 10.6367H3.20312V11.6367H2L1.7959 11.626C0.854423 11.5305 0.106315 10.7823 0.0107422 9.84082L0 9.63672V2C0 0.964349 0.787223 0.113004 1.7959 0.0107422L2 0H8.4082Z" fill="currentColor"/>
</svg>
