<svg width="14" height="29" viewBox="0 0 14 29" fill="none" xmlns="http://www.w3.org/2000/svg">
<rect y="8" width="14" height="14" rx="3" fill="white"/>
<rect y="8" width="14" height="14" rx="3" fill="#486FDC"/>
<rect y="8" width="14" height="14" rx="3" fill="#ED0000"/>
<path d="M7.616 10.66L7.46 16.48H6.32L6.164 10.66H7.616ZM6.932 19.084C6.684 19.084 6.476 19 6.308 18.832C6.14 18.664 6.056 18.456 6.056 18.208C6.056 17.96 6.14 17.752 6.308 17.584C6.476 17.416 6.684 17.332 6.932 17.332C7.172 17.332 7.376 17.416 7.544 17.584C7.712 17.752 7.796 17.96 7.796 18.208C7.796 18.456 7.712 18.664 7.544 18.832C7.376 19 7.172 19.084 6.932 19.084Z" fill="white"/>
</svg>
