<svg width="22" height="15" viewBox="0 0 22 15" fill="none" xmlns="http://www.w3.org/2000/svg">
<path d="M8.51074 0.248535C10.3965 -0.185957 12.4643 -0.0910142 14.6162 0.851074C16.7619 1.79054 18.9641 3.56033 21.1514 6.43115L21.3574 6.70068L21.1826 6.99072C19.4772 9.83308 16.3654 13.3265 12.5684 14.3569C10.6468 14.8783 8.56096 14.7641 6.43652 13.6333C4.32478 12.5091 2.2078 10.3986 0.163086 6.99072L0 6.71924L0.175781 6.45654C1.78217 4.04696 4.76597 1.1114 8.51074 0.248535ZM14.2148 1.76709C12.2699 0.9156 10.4227 0.834362 8.73535 1.22314C5.46271 1.9772 2.75183 4.51457 1.18848 6.74951C3.12109 9.89611 5.06075 11.7676 6.90723 12.7505C8.79389 13.7547 10.6151 13.8507 12.3057 13.3921C15.6135 12.4946 18.462 9.45546 20.1445 6.76514C18.1034 4.15531 16.1011 2.59292 14.2148 1.76709ZM10.6729 3.37256C12.8997 3.3727 14.7049 5.17796 14.7051 7.40479C14.7051 9.63175 12.8998 11.4369 10.6729 11.437C8.4459 11.4369 6.64062 9.63177 6.64062 7.40479C6.64078 5.17793 8.44599 3.37267 10.6729 3.37256ZM10.6729 4.37256C8.99827 4.37267 7.64078 5.73022 7.64062 7.40479C7.64062 9.07948 8.99818 10.4369 10.6729 10.437C12.3475 10.4369 13.7051 9.07946 13.7051 7.40479C13.7049 5.73024 12.3474 4.3727 10.6729 4.37256Z" fill="currentColor" stroke-width="1" />
</svg>
