<svg width="17" height="17" viewBox="0 0 17 17" fill="none" xmlns="http://www.w3.org/2000/svg">
<path d="M0.416997 5.87831L7.917 10.2116C8.04368 10.2848 8.18738 10.3233 8.33366 10.3233C8.47994 10.3233 8.62365 10.2848 8.75033 10.2116L16.2503 5.87831C16.3763 5.8056 16.481 5.70119 16.5541 5.57547C16.6272 5.44974 16.6661 5.30707 16.667 5.16164C16.6676 5.0148 16.6294 4.87041 16.5562 4.7431C16.483 4.61579 16.3775 4.51007 16.2503 4.43665L8.75033 0.111646C8.62365 0.0385053 8.47994 0 8.33366 0C8.18738 0 8.04368 0.0385053 7.917 0.111646L0.416997 4.43665C0.289827 4.51007 0.184315 4.61579 0.111146 4.7431C0.0379763 4.87041 -0.00025238 5.0148 0.000330593 5.16164C0.0012084 5.30707 0.0401297 5.44974 0.113226 5.57547C0.186323 5.70119 0.291049 5.8056 0.416997 5.87831V5.87831ZM8.33366 1.82831L14.167 5.16164L8.33366 8.49498L2.50033 5.16164L8.33366 1.82831ZM15.417 7.80331L8.33366 11.8283L1.25033 7.76998C1.15522 7.71488 1.05015 7.67914 0.941164 7.66482C0.832182 7.6505 0.721444 7.65788 0.615328 7.68654C0.509211 7.7152 0.409812 7.76457 0.322856 7.83181C0.2359 7.89905 0.163106 7.98282 0.108664 8.07831C2.0278e-05 8.26966 -0.028535 8.49621 0.0292291 8.70853C0.0869932 8.92085 0.226388 9.10171 0.416997 9.21164L7.917 13.545C8.04368 13.6181 8.18738 13.6566 8.33366 13.6566C8.47994 13.6566 8.62365 13.6181 8.75033 13.545L16.2503 9.21164C16.4409 9.10171 16.5803 8.92085 16.6381 8.70853C16.6959 8.49621 16.6673 8.26966 16.5587 8.07831C16.5042 7.98282 16.4314 7.89905 16.3445 7.83181C16.2575 7.76457 16.1581 7.7152 16.052 7.68654C15.9459 7.65788 15.8351 7.6505 15.7262 7.66482C15.6172 7.67914 15.5121 7.71488 15.417 7.76998V7.80331ZM15.417 11.1366L8.33366 15.1616L1.25033 11.1033C1.15522 11.0482 1.05015 11.0125 0.941164 10.9982C0.832182 10.9838 0.721444 10.9912 0.615328 11.0199C0.509211 11.0485 0.409812 11.0979 0.322856 11.1651C0.2359 11.2324 0.163106 11.3162 0.108664 11.4116C2.0278e-05 11.603 -0.028535 11.8295 0.0292291 12.0419C0.0869932 12.2542 0.226388 12.435 0.416997 12.545L7.917 16.8783C8.04368 16.9515 8.18738 16.99 8.33366 16.99C8.47994 16.99 8.62365 16.9515 8.75033 16.8783L16.2503 12.545C16.4409 12.435 16.5803 12.2542 16.6381 12.0419C16.6959 11.8295 16.6673 11.603 16.5587 11.4116C16.5042 11.3162 16.4314 11.2324 16.3445 11.1651C16.2575 11.0979 16.1581 11.0485 16.052 11.0199C15.9459 10.9912 15.8351 10.9838 15.7262 10.9982C15.6172 11.0125 15.5121 11.0482 15.417 11.1033V11.1366Z" fill="currentColor"/>
</svg>
