<svg width="17" height="16" viewBox="0 0 17 16" fill="none" xmlns="http://www.w3.org/2000/svg">
<path d="M5.00065 4.16683V2.50016C5.00065 2.05814 5.17625 1.63421 5.48881 1.32165C5.80137 1.00909 6.22529 0.833496 6.66732 0.833496H10.0007C10.4427 0.833496 10.8666 1.00909 11.1792 1.32165C11.4917 1.63421 11.6673 2.05814 11.6673 2.50016V4.16683M8.33398 8.3335V8.34183M0.833984 9.16683C3.1603 10.3391 5.72901 10.9497 8.33398 10.9497C10.939 10.9497 13.5077 10.3391 15.834 9.16683M0.833984 5.8335C0.833984 5.39147 1.00958 4.96755 1.32214 4.65498C1.6347 4.34242 2.05862 4.16683 2.50065 4.16683H14.1673C14.6093 4.16683 15.0333 4.34242 15.3458 4.65498C15.6584 4.96755 15.834 5.39147 15.834 5.8335V13.3335C15.834 13.7755 15.6584 14.1994 15.3458 14.512C15.0333 14.8246 14.6093 15.0002 14.1673 15.0002H2.50065C2.05862 15.0002 1.6347 14.8246 1.32214 14.512C1.00958 14.1994 0.833984 13.7755 0.833984 13.3335V5.8335Z" stroke="currentColor" stroke-width="1.66667" stroke-linecap="round" stroke-linejoin="round"/>
</svg>
