<svg width="19" height="17" viewBox="0 0 19 17" fill="none" xmlns="http://www.w3.org/2000/svg">
<path d="M15.8333 0H7.5C6.83696 0 6.20107 0.263392 5.73223 0.732233C5.26339 1.20107 5 1.83696 5 2.5V8.33333C5 8.99637 5.26339 9.63226 5.73223 10.1011C6.20107 10.5699 6.83696 10.8333 7.5 10.8333H15.8333C16.4964 10.8333 17.1323 10.5699 17.6011 10.1011C18.0699 9.63226 18.3333 8.99637 18.3333 8.33333V2.5C18.3333 1.83696 18.0699 1.20107 17.6011 0.732233C17.1323 0.263392 16.4964 0 15.8333 0ZM16.6667 8.33333C16.6667 8.55435 16.5789 8.76631 16.4226 8.92259C16.2663 9.07887 16.0543 9.16667 15.8333 9.16667H7.5C7.27899 9.16667 7.06702 9.07887 6.91074 8.92259C6.75446 8.76631 6.66667 8.55435 6.66667 8.33333V2.5C6.66667 2.27899 6.75446 2.06702 6.91074 1.91074C7.06702 1.75446 7.27899 1.66667 7.5 1.66667H15.8333C16.0543 1.66667 16.2663 1.75446 16.4226 1.91074C16.5789 2.06702 16.6667 2.27899 16.6667 2.5V8.33333ZM13.75 5C13.4415 5.00104 13.1444 5.1169 12.9167 5.325C12.7375 5.16213 12.5148 5.05481 12.2758 5.01608C12.0368 4.97736 11.7916 5.00891 11.5702 5.10688C11.3487 5.20485 11.1605 5.36504 11.0284 5.56797C10.8962 5.77091 10.8259 6.00785 10.8259 6.25C10.8259 6.49215 10.8962 6.72909 11.0284 6.93203C11.1605 7.13496 11.3487 7.29515 11.5702 7.39312C11.7916 7.49109 12.0368 7.52264 12.2758 7.48392C12.5148 7.44519 12.7375 7.33787 12.9167 7.175C13.0672 7.31177 13.2487 7.40977 13.4457 7.46048C13.6426 7.5112 13.8489 7.5131 14.0468 7.46603C14.2446 7.41895 14.4279 7.32432 14.5809 7.19035C14.7339 7.05637 14.8519 6.8871 14.9247 6.6972C14.9974 6.50731 15.0227 6.30253 14.9984 6.10063C14.9741 5.89873 14.901 5.70581 14.7852 5.5386C14.6695 5.37139 14.5147 5.23494 14.3343 5.14108C14.1539 5.04722 13.9534 4.9988 13.75 5ZM12.5 12.5C12.279 12.5 12.067 12.5878 11.9107 12.7441C11.7545 12.9004 11.6667 13.1123 11.6667 13.3333V14.1667C11.6667 14.3877 11.5789 14.5996 11.4226 14.7559C11.2663 14.9122 11.0543 15 10.8333 15H2.5C2.27899 15 2.06702 14.9122 1.91074 14.7559C1.75446 14.5996 1.66667 14.3877 1.66667 14.1667V10.8333H2.5C2.72101 10.8333 2.93297 10.7455 3.08926 10.5893C3.24554 10.433 3.33333 10.221 3.33333 10C3.33333 9.77899 3.24554 9.56702 3.08926 9.41074C2.93297 9.25446 2.72101 9.16667 2.5 9.16667H1.66667V8.33333C1.66667 8.11232 1.75446 7.90036 1.91074 7.74408C2.06702 7.5878 2.27899 7.5 2.5 7.5C2.72101 7.5 2.93297 7.4122 3.08926 7.25592C3.24554 7.09964 3.33333 6.88768 3.33333 6.66667C3.33333 6.44565 3.24554 6.23369 3.08926 6.07741C2.93297 5.92113 2.72101 5.83333 2.5 5.83333C1.83696 5.83333 1.20107 6.09672 0.732233 6.56557C0.263392 7.03441 0 7.67029 0 8.33333V14.1667C0 14.8297 0.263392 15.4656 0.732233 15.9344C1.20107 16.4033 1.83696 16.6667 2.5 16.6667H10.8333C11.4964 16.6667 12.1323 16.4033 12.6011 15.9344C13.0699 15.4656 13.3333 14.8297 13.3333 14.1667V13.3333C13.3333 13.1123 13.2455 12.9004 13.0893 12.7441C12.933 12.5878 12.721 12.5 12.5 12.5ZM4.16667 13.3333H5C5.22101 13.3333 5.43297 13.2455 5.58925 13.0893C5.74554 12.933 5.83333 12.721 5.83333 12.5C5.83333 12.279 5.74554 12.067 5.58925 11.9107C5.43297 11.7545 5.22101 11.6667 5 11.6667H4.16667C3.94565 11.6667 3.73369 11.7545 3.57741 11.9107C3.42113 12.067 3.33333 12.279 3.33333 12.5C3.33333 12.721 3.42113 12.933 3.57741 13.0893C3.73369 13.2455 3.94565 13.3333 4.16667 13.3333Z" fill="currentColor"/>
<path d="M15.8333 0H7.5C6.83696 0 6.20107 0.263392 5.73223 0.732233C5.26339 1.20107 5 1.83696 5 2.5V8.33333C5 8.99637 5.26339 9.63226 5.73223 10.1011C6.20107 10.5699 6.83696 10.8333 7.5 10.8333H15.8333C16.4964 10.8333 17.1323 10.5699 17.6011 10.1011C18.0699 9.63226 18.3333 8.99637 18.3333 8.33333V2.5C18.3333 1.83696 18.0699 1.20107 17.6011 0.732233C17.1323 0.263392 16.4964 0 15.8333 0ZM16.6667 8.33333C16.6667 8.55435 16.5789 8.76631 16.4226 8.92259C16.2663 9.07887 16.0543 9.16667 15.8333 9.16667H7.5C7.27899 9.16667 7.06702 9.07887 6.91074 8.92259C6.75446 8.76631 6.66667 8.55435 6.66667 8.33333V2.5C6.66667 2.27899 6.75446 2.06702 6.91074 1.91074C7.06702 1.75446 7.27899 1.66667 7.5 1.66667H15.8333C16.0543 1.66667 16.2663 1.75446 16.4226 1.91074C16.5789 2.06702 16.6667 2.27899 16.6667 2.5V8.33333ZM13.75 5C13.4415 5.00104 13.1444 5.1169 12.9167 5.325C12.7375 5.16213 12.5148 5.05481 12.2758 5.01608C12.0368 4.97736 11.7916 5.00891 11.5702 5.10688C11.3487 5.20485 11.1605 5.36504 11.0284 5.56797C10.8962 5.77091 10.8259 6.00785 10.8259 6.25C10.8259 6.49215 10.8962 6.72909 11.0284 6.93203C11.1605 7.13496 11.3487 7.29515 11.5702 7.39312C11.7916 7.49109 12.0368 7.52264 12.2758 7.48392C12.5148 7.44519 12.7375 7.33787 12.9167 7.175C13.0672 7.31177 13.2487 7.40977 13.4457 7.46048C13.6426 7.5112 13.8489 7.5131 14.0468 7.46603C14.2446 7.41895 14.4279 7.32432 14.5809 7.19035C14.7339 7.05637 14.8519 6.8871 14.9247 6.6972C14.9974 6.50731 15.0227 6.30253 14.9984 6.10063C14.9741 5.89873 14.901 5.70581 14.7852 5.5386C14.6695 5.37139 14.5147 5.23494 14.3343 5.14108C14.1539 5.04722 13.9534 4.9988 13.75 5ZM12.5 12.5C12.279 12.5 12.067 12.5878 11.9107 12.7441C11.7545 12.9004 11.6667 13.1123 11.6667 13.3333V14.1667C11.6667 14.3877 11.5789 14.5996 11.4226 14.7559C11.2663 14.9122 11.0543 15 10.8333 15H2.5C2.27899 15 2.06702 14.9122 1.91074 14.7559C1.75446 14.5996 1.66667 14.3877 1.66667 14.1667V10.8333H2.5C2.72101 10.8333 2.93297 10.7455 3.08926 10.5893C3.24554 10.433 3.33333 10.221 3.33333 10C3.33333 9.77899 3.24554 9.56702 3.08926 9.41074C2.93297 9.25446 2.72101 9.16667 2.5 9.16667H1.66667V8.33333C1.66667 8.11232 1.75446 7.90036 1.91074 7.74408C2.06702 7.5878 2.27899 7.5 2.5 7.5C2.72101 7.5 2.93297 7.4122 3.08926 7.25592C3.24554 7.09964 3.33333 6.88768 3.33333 6.66667C3.33333 6.44565 3.24554 6.23369 3.08926 6.07741C2.93297 5.92113 2.72101 5.83333 2.5 5.83333C1.83696 5.83333 1.20107 6.09672 0.732233 6.56557C0.263392 7.03441 0 7.67029 0 8.33333V14.1667C0 14.8297 0.263392 15.4656 0.732233 15.9344C1.20107 16.4033 1.83696 16.6667 2.5 16.6667H10.8333C11.4964 16.6667 12.1323 16.4033 12.6011 15.9344C13.0699 15.4656 13.3333 14.8297 13.3333 14.1667V13.3333C13.3333 13.1123 13.2455 12.9004 13.0893 12.7441C12.933 12.5878 12.721 12.5 12.5 12.5ZM4.16667 13.3333H5C5.22101 13.3333 5.43297 13.2455 5.58925 13.0893C5.74554 12.933 5.83333 12.721 5.83333 12.5C5.83333 12.279 5.74554 12.067 5.58925 11.9107C5.43297 11.7545 5.22101 11.6667 5 11.6667H4.16667C3.94565 11.6667 3.73369 11.7545 3.57741 11.9107C3.42113 12.067 3.33333 12.279 3.33333 12.5C3.33333 12.721 3.42113 12.933 3.57741 13.0893C3.73369 13.2455 3.94565 13.3333 4.16667 13.3333Z" fill="currentColor"/>
<path d="M15.8333 0H7.5C6.83696 0 6.20107 0.263392 5.73223 0.732233C5.26339 1.20107 5 1.83696 5 2.5V8.33333C5 8.99637 5.26339 9.63226 5.73223 10.1011C6.20107 10.5699 6.83696 10.8333 7.5 10.8333H15.8333C16.4964 10.8333 17.1323 10.5699 17.6011 10.1011C18.0699 9.63226 18.3333 8.99637 18.3333 8.33333V2.5C18.3333 1.83696 18.0699 1.20107 17.6011 0.732233C17.1323 0.263392 16.4964 0 15.8333 0ZM16.6667 8.33333C16.6667 8.55435 16.5789 8.76631 16.4226 8.92259C16.2663 9.07887 16.0543 9.16667 15.8333 9.16667H7.5C7.27899 9.16667 7.06702 9.07887 6.91074 8.92259C6.75446 8.76631 6.66667 8.55435 6.66667 8.33333V2.5C6.66667 2.27899 6.75446 2.06702 6.91074 1.91074C7.06702 1.75446 7.27899 1.66667 7.5 1.66667H15.8333C16.0543 1.66667 16.2663 1.75446 16.4226 1.91074C16.5789 2.06702 16.6667 2.27899 16.6667 2.5V8.33333ZM13.75 5C13.4415 5.00104 13.1444 5.1169 12.9167 5.325C12.7375 5.16213 12.5148 5.05481 12.2758 5.01608C12.0368 4.97736 11.7916 5.00891 11.5702 5.10688C11.3487 5.20485 11.1605 5.36504 11.0284 5.56797C10.8962 5.77091 10.8259 6.00785 10.8259 6.25C10.8259 6.49215 10.8962 6.72909 11.0284 6.93203C11.1605 7.13496 11.3487 7.29515 11.5702 7.39312C11.7916 7.49109 12.0368 7.52264 12.2758 7.48392C12.5148 7.44519 12.7375 7.33787 12.9167 7.175C13.0672 7.31177 13.2487 7.40977 13.4457 7.46048C13.6426 7.5112 13.8489 7.5131 14.0468 7.46603C14.2446 7.41895 14.4279 7.32432 14.5809 7.19035C14.7339 7.05637 14.8519 6.8871 14.9247 6.6972C14.9974 6.50731 15.0227 6.30253 14.9984 6.10063C14.9741 5.89873 14.901 5.70581 14.7852 5.5386C14.6695 5.37139 14.5147 5.23494 14.3343 5.14108C14.1539 5.04722 13.9534 4.9988 13.75 5ZM12.5 12.5C12.279 12.5 12.067 12.5878 11.9107 12.7441C11.7545 12.9004 11.6667 13.1123 11.6667 13.3333V14.1667C11.6667 14.3877 11.5789 14.5996 11.4226 14.7559C11.2663 14.9122 11.0543 15 10.8333 15H2.5C2.27899 15 2.06702 14.9122 1.91074 14.7559C1.75446 14.5996 1.66667 14.3877 1.66667 14.1667V10.8333H2.5C2.72101 10.8333 2.93297 10.7455 3.08926 10.5893C3.24554 10.433 3.33333 10.221 3.33333 10C3.33333 9.77899 3.24554 9.56702 3.08926 9.41074C2.93297 9.25446 2.72101 9.16667 2.5 9.16667H1.66667V8.33333C1.66667 8.11232 1.75446 7.90036 1.91074 7.74408C2.06702 7.5878 2.27899 7.5 2.5 7.5C2.72101 7.5 2.93297 7.4122 3.08926 7.25592C3.24554 7.09964 3.33333 6.88768 3.33333 6.66667C3.33333 6.44565 3.24554 6.23369 3.08926 6.07741C2.93297 5.92113 2.72101 5.83333 2.5 5.83333C1.83696 5.83333 1.20107 6.09672 0.732233 6.56557C0.263392 7.03441 0 7.67029 0 8.33333V14.1667C0 14.8297 0.263392 15.4656 0.732233 15.9344C1.20107 16.4033 1.83696 16.6667 2.5 16.6667H10.8333C11.4964 16.6667 12.1323 16.4033 12.6011 15.9344C13.0699 15.4656 13.3333 14.8297 13.3333 14.1667V13.3333C13.3333 13.1123 13.2455 12.9004 13.0893 12.7441C12.933 12.5878 12.721 12.5 12.5 12.5ZM4.16667 13.3333H5C5.22101 13.3333 5.43297 13.2455 5.58925 13.0893C5.74554 12.933 5.83333 12.721 5.83333 12.5C5.83333 12.279 5.74554 12.067 5.58925 11.9107C5.43297 11.7545 5.22101 11.6667 5 11.6667H4.16667C3.94565 11.6667 3.73369 11.7545 3.57741 11.9107C3.42113 12.067 3.33333 12.279 3.33333 12.5C3.33333 12.721 3.42113 12.933 3.57741 13.0893C3.73369 13.2455 3.94565 13.3333 4.16667 13.3333Z" fill="currentColor"/>
</svg>
