<svg width="17" height="17" viewBox="0 0 17 17" fill="none" xmlns="http://www.w3.org/2000/svg">
<path fill-rule="evenodd" clip-rule="evenodd" d="M10.886 2.37525C10.1578 1.50075 9.24354 0.75 8.24979 0.75C7.25679 0.75 6.34254 1.50075 5.61429 2.37525C4.49154 3.723 4.59804 5.71125 5.83929 6.9525C7.17054 8.28375 9.32979 8.28375 10.661 6.9525C11.9015 5.71125 12.0095 3.723 10.886 2.37525Z" stroke="currentColor" stroke-width="1.5"/>
<path fill-rule="evenodd" clip-rule="evenodd" d="M3.2625 15.7501H13.239C14.6257 15.7501 15.75 14.6251 15.75 13.2376C15.75 11.8508 14.6257 10.7266 13.239 10.7266H3.2625C1.875 10.7266 0.75 11.8508 0.75 13.2376C0.75 14.6251 1.875 15.7501 3.2625 15.7501Z" stroke="currentColor" stroke-width="1.5"/>
<path d="M5.61403 2.375C4.49128 3.72275 4.59853 5.711 5.83903 6.95225" stroke="currentColor" stroke-width="1.5" stroke-linecap="round"/>
<path d="M3.2627 15.7501H13.2392C14.6259 15.7501 15.7502 14.6251 15.7502 13.2376C15.7502 11.8508 14.6259 10.7266 13.2392 10.7266" stroke="currentColor" stroke-width="1.5" stroke-linecap="round"/>
</svg>
