<svg width="30" height="33" viewBox="0 0 30 33" fill="none" xmlns="http://www.w3.org/2000/svg">
<circle cx="15" cy="18" r="15" fill="#A684FF"/>
<circle cx="15" cy="18" r="15" fill="#966EFF"/>
<path d="M15.584 26.168C14.352 26.168 13.248 25.968 12.272 25.568C11.296 25.168 10.512 24.576 9.92 23.792C9.344 23.008 9.04 22.064 9.008 20.96H13.376C13.44 21.584 13.656 22.064 14.024 22.4C14.392 22.72 14.872 22.88 15.464 22.88C16.072 22.88 16.552 22.744 16.904 22.472C17.256 22.184 17.432 21.792 17.432 21.296C17.432 20.88 17.288 20.536 17 20.264C16.728 19.992 16.384 19.768 15.968 19.592C15.568 19.416 14.992 19.216 14.24 18.992C13.152 18.656 12.264 18.32 11.576 17.984C10.888 17.648 10.296 17.152 9.8 16.496C9.304 15.84 9.056 14.984 9.056 13.928C9.056 12.36 9.624 11.136 10.76 10.256C11.896 9.36 13.376 8.912 15.2 8.912C17.056 8.912 18.552 9.36 19.688 10.256C20.824 11.136 21.432 12.368 21.512 13.952H17.072C17.04 13.408 16.84 12.984 16.472 12.68C16.104 12.36 15.632 12.2 15.056 12.2C14.56 12.2 14.16 12.336 13.856 12.608C13.552 12.864 13.4 13.24 13.4 13.736C13.4 14.28 13.656 14.704 14.168 15.008C14.68 15.312 15.48 15.64 16.568 15.992C17.656 16.36 18.536 16.712 19.208 17.048C19.896 17.384 20.488 17.872 20.984 18.512C21.48 19.152 21.728 19.976 21.728 20.984C21.728 21.944 21.48 22.816 20.984 23.6C20.504 24.384 19.8 25.008 18.872 25.472C17.944 25.936 16.848 26.168 15.584 26.168Z" fill="white"/>
</svg>
