<svg width="17" height="19" viewBox="0 0 17 19" fill="none" xmlns="http://www.w3.org/2000/svg">
<path d="M15.0625 4.55799C15.3489 4.72087 15.5867 4.95713 15.7515 5.24245C15.9163 5.52777 16.0021 5.85185 16 6.18132V12.2513C16 12.9255 15.6308 13.5472 15.035 13.8747L9.41 17.433C9.13113 17.5861 8.81814 17.6664 8.5 17.6664C8.18186 17.6664 7.86887 17.5861 7.59 17.433L1.965 13.8747C1.67347 13.7153 1.4301 13.4806 1.26034 13.1951C1.09058 12.9095 1.00067 12.5835 1 12.2513V6.18049C1 5.50632 1.36917 4.88549 1.965 4.55799L7.59 1.24132C7.87711 1.08302 8.19964 1 8.5275 1C8.85536 1 9.17789 1.08302 9.465 1.24132L15.09 4.55799H15.0625Z" stroke="currentColor" stroke-width="2" stroke-linecap="round" stroke-linejoin="round"/>
<path d="M6 9.33293C6 9.99597 6.26339 10.6319 6.73223 11.1007C7.20107 11.5695 7.83696 11.8329 8.5 11.8329C9.16304 11.8329 9.79893 11.5695 10.2678 11.1007C10.7366 10.6319 11 9.99597 11 9.33293C11 8.66989 10.7366 8.034 10.2678 7.56516C9.79893 7.09632 9.16304 6.83293 8.5 6.83293C7.83696 6.83293 7.20107 7.09632 6.73223 7.56516C6.26339 8.034 6 8.66989 6 9.33293Z" stroke="currentColor" stroke-width="2" stroke-linecap="round" stroke-linejoin="round"/>
</svg>
