<svg width="16" height="18" viewBox="0 0 16 18" fill="none" xmlns="http://www.w3.org/2000/svg">
<path d="M1 10.1667V7.66667C1 5.89856 1.70238 4.20286 2.95262 2.95262C4.20286 1.70238 5.89856 1 7.66667 1C9.43478 1 11.1305 1.70238 12.3807 2.95262C13.631 4.20286 14.3333 5.89856 14.3333 7.66667V10.1667M1 10.1667C1 9.72464 1.17559 9.30072 1.48816 8.98816C1.80072 8.67559 2.22464 8.5 2.66667 8.5H3.5C3.94203 8.5 4.36595 8.67559 4.67851 8.98816C4.99107 9.30072 5.16667 9.72464 5.16667 10.1667V12.6667C5.16667 13.1087 4.99107 13.5326 4.67851 13.8452C4.36595 14.1577 3.94203 14.3333 3.5 14.3333H2.66667C2.22464 14.3333 1.80072 14.1577 1.48816 13.8452C1.17559 13.5326 1 13.1087 1 12.6667V10.1667ZM14.3333 10.1667C14.3333 9.72464 14.1577 9.30072 13.8452 8.98816C13.5326 8.67559 13.1087 8.5 12.6667 8.5H11.8333C11.3913 8.5 10.9674 8.67559 10.6548 8.98816C10.3423 9.30072 10.1667 9.72464 10.1667 10.1667V12.6667C10.1667 13.1087 10.3423 13.5326 10.6548 13.8452C10.9674 14.1577 11.3913 14.3333 11.8333 14.3333H12.6667M14.3333 10.1667V12.6667C14.3333 13.1087 14.1577 13.5326 13.8452 13.8452C13.5326 14.1577 13.1087 14.3333 12.6667 14.3333M12.6667 14.3333C12.6667 15.7142 10.4283 16.8333 7.66667 16.8333" stroke="currentColor" stroke-width="2" stroke-linecap="round" stroke-linejoin="round"/>
</svg>
