<svg width="20" height="17" viewBox="0 0 20 17" fill="none" xmlns="http://www.w3.org/2000/svg">
<path d="M19.4759 7.99186C19.4948 10.0022 18.7824 11.9515 17.472 13.4762C16.1614 15.001 14.3405 15.9976 12.35 16.2809C10.3595 16.5641 8.33369 16.1148 6.64978 15.0163C4.96598 13.9177 3.73851 12.245 3.19567 10.3092C3.07142 9.86537 3.32999 9.4035 3.7738 9.27897C4.21761 9.15475 4.67849 9.41437 4.8031 9.85807C5.2366 11.4043 6.21791 12.7404 7.56286 13.6178C8.90775 14.4951 10.5259 14.8538 12.1156 14.6276C13.7051 14.4012 15.1588 13.605 16.2054 12.3874C16.9968 11.4665 17.5152 10.3516 17.7142 9.16862L14.4398 10.2028C14.0001 10.3417 13.5309 10.0976 13.392 9.65787C13.2534 9.21831 13.4973 8.74891 13.9369 8.61002L18.389 7.20377L19.4652 6.86393L19.4759 7.99186ZM7.12634 0.082679C9.11674 -0.200404 11.1427 0.248849 12.8265 1.34733C14.5102 2.4458 15.7378 4.11871 16.2806 6.05436C16.4051 6.49821 16.1462 6.95991 15.7025 7.08463C15.2585 7.20912 14.7977 6.94955 14.6732 6.50553C14.2397 4.95943 13.2583 3.62312 11.9134 2.74576C10.5687 1.86858 8.9503 1.50986 7.36071 1.736C5.77124 1.96233 4.31751 2.75877 3.27087 3.97623C2.47945 4.89707 1.96118 6.01198 1.76208 7.19498L5.03649 6.1608C5.47601 6.02216 5.94533 6.26631 6.08435 6.70573C6.22308 7.14525 5.97882 7.6145 5.53942 7.75358L1.08728 9.15983L0.0111043 9.49967L0.000362115 8.37174C-0.0184173 6.36137 0.693805 4.41205 2.00427 2.88737C3.31491 1.36277 5.13586 0.365961 7.12634 0.082679Z" fill="currentColor"/>
</svg>
