<svg width="17" height="17" viewBox="0 0 17 17" fill="none" xmlns="http://www.w3.org/2000/svg">
<path d="M2.66667 11.8333C3.10869 11.8333 3.53262 12.0089 3.84518 12.3215C4.15774 12.634 4.33333 13.058 4.33333 13.5C4.33333 13.942 4.15774 14.366 3.84518 14.6785C3.53262 14.9911 3.10869 15.1667 2.66667 15.1667C2.22464 15.1667 1.80072 14.9911 1.48816 14.6785C1.17559 14.366 1 13.942 1 13.5C1 13.058 1.17559 12.634 1.48816 12.3215C1.80072 12.0089 2.22464 11.8333 2.66667 11.8333ZM2.66667 11.8333V7.66667C2.66667 6.5616 3.10565 5.50179 3.88706 4.72039C4.66846 3.93899 5.72826 3.5 6.83333 3.5H9.33333M14.3333 5.16667C13.8913 5.16667 13.4674 4.99107 13.1548 4.67851C12.8423 4.36595 12.6667 3.94203 12.6667 3.5C12.6667 3.05797 12.8423 2.63405 13.1548 2.32149C13.4674 2.00893 13.8913 1.83333 14.3333 1.83333C14.7754 1.83333 15.1993 2.00893 15.5118 2.32149C15.8244 2.63405 16 3.05797 16 3.5C16 3.94203 15.8244 4.36595 15.5118 4.67851C15.1993 4.99107 14.7754 5.16667 14.3333 5.16667ZM14.3333 5.16667V9.33333C14.3333 10.4384 13.8943 11.4982 13.1129 12.2796C12.3315 13.061 11.2717 13.5 10.1667 13.5H7.66667M7.66667 13.5L10.1667 11M7.66667 13.5L10.1667 16M9.33333 3.5L6.83333 1M9.33333 3.5L6.83333 6" stroke="currentColor" stroke-width="2" stroke-linecap="round" stroke-linejoin="round"/>
</svg>
