<svg width="21" height="21" viewBox="0 0 21 21" fill="none" xmlns="http://www.w3.org/2000/svg">
<circle cx="10.5" cy="10.5" r="10.5" fill="#FF5562"/>
<circle cx="10.5" cy="10.5" r="10.5" fill="#FFAE00"/>
<path d="M10.91 16.105C9.92 16.105 9.01 15.875 8.18 15.415C7.36 14.955 6.705 14.315 6.215 13.495C5.735 12.665 5.495 11.735 5.495 10.705C5.495 9.675 5.735 8.75 6.215 7.93C6.705 7.11 7.36 6.47 8.18 6.01C9.01 5.55 9.92 5.32 10.91 5.32C11.9 5.32 12.805 5.55 13.625 6.01C14.455 6.47 15.105 7.11 15.575 7.93C16.055 8.75 16.295 9.675 16.295 10.705C16.295 11.735 16.055 12.665 15.575 13.495C15.095 14.315 14.445 14.955 13.625 15.415C12.805 15.875 11.9 16.105 10.91 16.105ZM10.91 13.765C11.75 13.765 12.42 13.485 12.92 12.925C13.43 12.365 13.685 11.625 13.685 10.705C13.685 9.775 13.43 9.035 12.92 8.485C12.42 7.925 11.75 7.645 10.91 7.645C10.06 7.645 9.38 7.92 8.87 8.47C8.37 9.02 8.12 9.765 8.12 10.705C8.12 11.635 8.37 12.38 8.87 12.94C9.38 13.49 10.06 13.765 10.91 13.765Z" fill="white"/>
</svg>
