<svg width="21" height="21" viewBox="0 0 21 21" fill="none" xmlns="http://www.w3.org/2000/svg">
<circle cx="10.5" cy="10.5" r="10.5" fill="#01D28B"/>
<circle cx="10.5" cy="10.5" r="10.5" fill="#01D201"/>
<circle cx="10.5" cy="10.5" r="10.5" fill="#016DD2"/>
<path d="M12.305 6.095L12.005 13.28H9.83L9.53 6.095H12.305ZM10.955 17.12C10.505 17.12 10.135 16.99 9.845 16.73C9.565 16.46 9.425 16.13 9.425 15.74C9.425 15.34 9.565 15.005 9.845 14.735C10.135 14.465 10.505 14.33 10.955 14.33C11.395 14.33 11.755 14.465 12.035 14.735C12.325 15.005 12.47 15.34 12.47 15.74C12.47 16.13 12.325 16.46 12.035 16.73C11.755 16.99 11.395 17.12 10.955 17.12Z" fill="white"/>
</svg>
