<svg width="16" height="17" viewBox="0 0 16 17" fill="none" xmlns="http://www.w3.org/2000/svg">
<path d="M0.5 3.46296H2.80769M15.5 3.46296H13.1923M13.1923 3.46296V16.5H2.80769V3.46296M13.1923 3.46296H10.8846M2.80769 3.46296H5.11538M5.11538 3.46296V0.5H10.8846V3.46296M5.11538 3.46296H10.8846M6.26923 7.01852V12.9444M9.73077 7.01852V12.9444" stroke="currentColor" stroke-linecap="round"/>
<path d="M0.5 3.46296H2.80769M15.5 3.46296H13.1923M13.1923 3.46296V16.5H2.80769V3.46296M13.1923 3.46296H10.8846M2.80769 3.46296H5.11538M5.11538 3.46296V0.5H10.8846V3.46296M5.11538 3.46296H10.8846M6.26923 7.01852V12.9444M9.73077 7.01852V12.9444" stroke="currentColor" stroke-linecap="round"/>
</svg>
