<svg width="16" height="18" viewBox="0 0 16 18" fill="none" xmlns="http://www.w3.org/2000/svg">
<path d="M12.6667 14.1383H12.0755C11.4533 14.1383 10.8622 14.3865 10.4267 14.8348L9.09665 16.1876C8.48998 16.804 7.50224 16.804 6.89557 16.1876L5.56555 14.8348C5.13 14.3865 4.53111 14.1383 3.91667 14.1383H3.33333C2.04222 14.1383 1 13.0737 1 11.7609V3.02737C1 1.71455 2.04222 0.649902 3.33333 0.649902H12.6667C13.9578 0.649902 15 1.71455 15 3.02737V11.7609C15 13.0657 13.9578 14.1383 12.6667 14.1383Z" stroke="currentColor" stroke-width="1.3" stroke-miterlimit="10" stroke-linecap="round" stroke-linejoin="round"/>
<path d="M8 7.64722C9.10456 7.64722 10 6.75177 10 5.64719C10 4.54261 9.10456 3.64722 8 3.64722C6.89544 3.64722 6 4.54261 6 5.64719C6 6.75177 6.89544 7.64722 8 7.64722Z" stroke="currentColor" stroke-width="1.3" stroke-linecap="round" stroke-linejoin="round"/>
<path d="M11 12.6499C11 10.9934 9.6575 9.6499 8 9.6499C6.3425 9.6499 5 10.9934 5 12.6499" stroke="currentColor" stroke-width="1.3" stroke-linecap="round" stroke-linejoin="round"/>
</svg>
