<svg width="21" height="19" viewBox="0 0 21 19" fill="none" xmlns="http://www.w3.org/2000/svg">
<path d="M16.6523 0C18.5162 3.59757e-05 20.0823 1.27478 20.5264 3H11.8262C9.61703 3 7.82617 4.79086 7.82617 7V12C7.82617 14.2091 9.61703 16 11.8262 16H20.5264C20.0823 17.7252 18.5162 19 16.6523 19H4C1.79091 18.9999 1.61056e-08 17.2091 0 15V4C0 1.79089 1.7909 5.05e-05 4 0H16.6523Z" fill="black"/>
<path d="M16.6523 0C18.5162 3.59757e-05 20.0823 1.27478 20.5264 3H11.8262C9.61703 3 7.82617 4.79086 7.82617 7V12C7.82617 14.2091 9.61703 16 11.8262 16H20.5264C20.0823 17.7252 18.5162 19 16.6523 19H4C1.79091 18.9999 1.61056e-08 17.2091 0 15V4C0 1.79089 1.7909 5.05e-05 4 0H16.6523Z" fill="#7989BA"/>
<path fill-rule="evenodd" clip-rule="evenodd" d="M17.8262 4C19.483 4 20.8262 5.34315 20.8262 7V12C20.8262 13.6569 19.483 15 17.8262 15H11.8262C10.1693 15 8.82617 13.6569 8.82617 12V7C8.82617 5.34315 10.1693 4 11.8262 4H17.8262ZM13.6289 7.30371C12.4885 7.30385 11.5636 8.22872 11.5635 9.36914C11.5635 10.5096 12.4884 11.4344 13.6289 11.4346C14.7695 11.4346 15.6943 10.5097 15.6943 9.36914C15.6942 8.22864 14.7694 7.30371 13.6289 7.30371Z" fill="black"/>
<path fill-rule="evenodd" clip-rule="evenodd" d="M17.8262 4C19.483 4 20.8262 5.34315 20.8262 7V12C20.8262 13.6569 19.483 15 17.8262 15H11.8262C10.1693 15 8.82617 13.6569 8.82617 12V7C8.82617 5.34315 10.1693 4 11.8262 4H17.8262ZM13.6289 7.30371C12.4885 7.30385 11.5636 8.22872 11.5635 9.36914C11.5635 10.5096 12.4884 11.4344 13.6289 11.4346C14.7695 11.4346 15.6943 10.5097 15.6943 9.36914C15.6942 8.22864 14.7694 7.30371 13.6289 7.30371Z" fill="#7989BA"/>
</svg>
