<svg width="18" height="20" viewBox="0 0 18 20" fill="none" xmlns="http://www.w3.org/2000/svg">
<path d="M0.649902 10.6499C0.649902 8.76428 0.649902 7.82148 1.23569 7.23569C1.82148 6.6499 2.76428 6.6499 4.6499 6.6499H12.6499C14.5355 6.6499 15.4783 6.6499 16.0641 7.23569C16.6499 7.82148 16.6499 8.76428 16.6499 10.6499V12.6499C16.6499 15.4783 16.6499 16.8925 15.7712 17.7712C14.8925 18.6499 13.4783 18.6499 10.6499 18.6499H6.6499C3.82148 18.6499 2.40726 18.6499 1.52858 17.7712C0.649902 16.8925 0.649902 15.4783 0.649902 12.6499V10.6499Z" stroke="#6B7280" stroke-width="1.3"/>
<path d="M12.6499 5.6499V4.6499C12.6499 2.44076 10.859 0.649902 8.6499 0.649902C6.44076 0.649902 4.6499 2.44076 4.6499 4.6499V5.6499" stroke="#6B7280" stroke-width="1.3" stroke-linecap="round"/>
<circle cx="8.6499" cy="12.6499" r="2" fill="#6B7280"/>
</svg>
