<svg width="16" height="16" viewBox="0 0 16 16" fill="none" xmlns="http://www.w3.org/2000/svg">
<path d="M10.6666 14V12.6667C10.6666 11.9594 10.3856 11.2811 9.88554 10.781C9.38544 10.281 8.70716 10 7.99992 10H3.99992C3.29267 10 2.6144 10.281 2.1143 10.781C1.6142 11.2811 1.33325 11.9594 1.33325 12.6667V14" fill="#6B7280"/>
<path d="M10.6667 2.08545C11.2386 2.2337 11.745 2.56763 12.1065 3.03482C12.4681 3.50202 12.6642 4.07604 12.6642 4.66678C12.6642 5.25752 12.4681 5.83154 12.1065 6.29874C11.745 6.76594 11.2386 7.09987 10.6667 7.24812" fill="#6B7280"/>
<path d="M14.6667 14V12.6667C14.6663 12.0758 14.4697 11.5019 14.1077 11.0349C13.7457 10.5679 13.2388 10.2344 12.6667 10.0867" fill="#6B7280"/>
<path d="M5.99992 7.33333C7.47268 7.33333 8.66659 6.13943 8.66659 4.66667C8.66659 3.19391 7.47268 2 5.99992 2C4.52716 2 3.33325 3.19391 3.33325 4.66667C3.33325 6.13943 4.52716 7.33333 5.99992 7.33333Z" fill="#6B7280"/>
</svg>
