<svg width="32" height="38" viewBox="0 0 32 38" fill="none" xmlns="http://www.w3.org/2000/svg">
    <path d="M8.44247 12.9979L22.5131 4.87423L14.0707 0L0.000315114 8.12356L0 24.3708L8.44241 29.245L8.44247 12.9979Z"
        fill="black" />
    <path d="M8.44247 12.9979L22.5131 4.87423L14.0707 0L0.000315114 8.12356L0 24.3708L8.44241 29.245L8.44247 12.9979Z"
        fill="#F15CB3" />
    <path d="M8.44247 12.9979L22.5131 4.87423L14.0707 0L0.000315114 8.12356L0 24.3708L8.44241 29.245L8.44247 12.9979Z"
        fill="#6E37FF" />
    <path
        d="M31.1782 13.5388L31.1782 29.7862L17.1074 37.9096L8.66504 33.0353L22.7357 24.9116L22.7358 8.66455L31.1782 13.5388Z"
        fill="black" />
    <path
        d="M31.1782 13.5388L31.1782 29.7862L17.1074 37.9096L8.66504 33.0353L22.7357 24.9116L22.7358 8.66455L31.1782 13.5388Z"
        fill="#F15CB3" />
    <path
        d="M31.1782 13.5388L31.1782 29.7862L17.1074 37.9096L8.66504 33.0353L22.7357 24.9116L22.7358 8.66455L31.1782 13.5388Z"
        fill="#6E37FF" />
</svg>