<svg width="25" height="29" viewBox="0 0 25 29" fill="none" xmlns="http://www.w3.org/2000/svg">
<g filter="url(#filter0_dd_4569_6313)">
<path d="M12.8422 8.17583C12.6079 7.94152 12.228 7.94152 11.9937 8.17583L8.17533 11.9942C7.94101 12.2285 7.94101 12.6084 8.17533 12.8427C8.40964 13.0771 8.78954 13.0771 9.02386 12.8427L12.418 9.44863L15.8121 12.8427C16.0464 13.0771 16.4263 13.0771 16.6606 12.8427C16.8949 12.6084 16.8949 12.2285 16.6606 11.9942L12.8422 8.17583ZM12.418 20.6001H13.018V14.6001H12.418H11.818V20.6001H12.418ZM12.418 14.6001H13.018V8.6001H12.418H11.818V14.6001H12.418Z" fill="#85B9FD"/>
</g>
<defs>
<filter id="filter0_dd_4569_6313" x="0" y="0" width="24.8359" height="28.6001" filterUnits="userSpaceOnUse" color-interpolation-filters="sRGB">
<feFlood flood-opacity="0" result="BackgroundImageFix"/>
<feColorMatrix in="SourceAlpha" type="matrix" values="0 0 0 0 0 0 0 0 0 0 0 0 0 0 0 0 0 0 127 0" result="hardAlpha"/>
<feOffset/>
<feGaussianBlur stdDeviation="4"/>
<feComposite in2="hardAlpha" operator="out"/>
<feColorMatrix type="matrix" values="0 0 0 0 0.027451 0 0 0 0 0.47451 0 0 0 0 0.913725 0 0 0 1 0"/>
<feBlend mode="normal" in2="BackgroundImageFix" result="effect1_dropShadow_4569_6313"/>
<feColorMatrix in="SourceAlpha" type="matrix" values="0 0 0 0 0 0 0 0 0 0 0 0 0 0 0 0 0 0 127 0" result="hardAlpha"/>
<feOffset/>
<feGaussianBlur stdDeviation="4"/>
<feComposite in2="hardAlpha" operator="out"/>
<feColorMatrix type="matrix" values="0 0 0 0 0.027451 0 0 0 0 0.47451 0 0 0 0 0.913725 0 0 0 1 0"/>
<feBlend mode="normal" in2="effect1_dropShadow_4569_6313" result="effect2_dropShadow_4569_6313"/>
<feBlend mode="normal" in="SourceGraphic" in2="effect2_dropShadow_4569_6313" result="shape"/>
</filter>
</defs>
</svg>
