<svg width="18" height="18" viewBox="0 0 18 18" fill="none" xmlns="http://www.w3.org/2000/svg">
<path d="M8.9375 0C7.16983 0 5.44186 0.524175 3.97209 1.50624C2.50233 2.48831 1.35679 3.88415 0.680331 5.51727C0.00387248 7.15038 -0.17312 8.94741 0.171736 10.6811C0.516591 12.4148 1.36781 14.0073 2.61774 15.2573C3.86767 16.5072 5.46018 17.3584 7.19388 17.7033C8.92759 18.0481 10.7246 17.8711 12.3577 17.1947C13.9909 16.5182 15.3867 15.3727 16.3688 13.9029C17.3508 12.4331 17.875 10.7052 17.875 8.9375C17.8725 6.5679 16.9301 4.29606 15.2545 2.6205C13.5789 0.944933 11.3071 0.00250234 8.9375 0ZM8.59375 4.125C8.79772 4.125 8.9971 4.18548 9.16669 4.2988C9.33627 4.41211 9.46845 4.57317 9.5465 4.76161C9.62456 4.95004 9.64498 5.15739 9.60519 5.35744C9.5654 5.55748 9.46718 5.74123 9.32296 5.88545C9.17873 6.02968 8.99498 6.12789 8.79494 6.16768C8.5949 6.20748 8.38755 6.18705 8.19911 6.109C8.01068 6.03095 7.84962 5.89877 7.7363 5.72918C7.62299 5.55959 7.5625 5.36021 7.5625 5.15625C7.5625 4.88275 7.67115 4.62044 7.86455 4.42705C8.05795 4.23365 8.32025 4.125 8.59375 4.125ZM9.625 13.75C9.26033 13.75 8.91059 13.6051 8.65273 13.3473C8.39487 13.0894 8.25 12.7397 8.25 12.375V8.9375C8.06767 8.9375 7.8928 8.86507 7.76387 8.73614C7.63494 8.6072 7.5625 8.43234 7.5625 8.25C7.5625 8.06766 7.63494 7.8928 7.76387 7.76386C7.8928 7.63493 8.06767 7.5625 8.25 7.5625C8.61468 7.5625 8.96441 7.70737 9.22228 7.96523C9.48014 8.22309 9.625 8.57283 9.625 8.9375V12.375C9.80734 12.375 9.98221 12.4474 10.1111 12.5764C10.2401 12.7053 10.3125 12.8802 10.3125 13.0625C10.3125 13.2448 10.2401 13.4197 10.1111 13.5486C9.98221 13.6776 9.80734 13.75 9.625 13.75Z" fill="white"/>
</svg>
