<svg width="24" height="23" viewBox="0 0 24 23" fill="none" xmlns="http://www.w3.org/2000/svg">
<circle cx="8.60156" cy="5.61719" r="4.4" stroke="currentColor" stroke-width="2.2"/>
<path d="M1.10156 21.1171V16.1227C1.10156 15.647 1.6435 14.6957 3.81124 14.6957C5.97898 14.6957 11.9403 14.6957 14.65 14.6957C15.3274 14.6957 16.6822 14.9811 16.6822 16.1227C16.6822 17.2643 16.6822 19.928 16.6822 21.1171M18.7145 14.1176H20.0693C20.7467 14.1176 22.1016 14.9053 22.1016 16.6176C22.1016 18.33 22.1016 20.4036 22.1016 21.1171M15.3516 1.11748C16.4806 0.879654 18.8516 3.11759 18.8516 5.61764C18.8516 8.11768 17.3516 9.61793 15.8516 10.1176" stroke="currentColor" stroke-width="2.2" stroke-linecap="round"/>
</svg>
