<svg width="19" height="19" viewBox="0 0 19 19" fill="none" xmlns="http://www.w3.org/2000/svg">
<rect width="19" height="19" rx="9.5" fill="white"/>
<path d="M8.72854 12.5174V12.4086C8.73611 11.6983 8.80613 11.1332 8.9386 10.7131C9.07485 10.2931 9.26788 9.95322 9.51767 9.69356C9.76747 9.43389 10.0684 9.19714 10.4204 8.98329C10.6474 8.83819 10.8518 8.6759 11.0335 8.49642C11.2152 8.31695 11.359 8.11074 11.465 7.8778C11.5709 7.64487 11.6239 7.38711 11.6239 7.10454C11.6239 6.76468 11.5444 6.47064 11.3855 6.22243C11.2265 5.97422 11.0146 5.78329 10.7496 5.64964C10.4885 5.51217 10.197 5.44344 9.87534 5.44344C9.58391 5.44344 9.30573 5.50453 9.04079 5.62673C8.77585 5.74893 8.55633 5.93986 8.38223 6.19952C8.20813 6.45537 8.10783 6.78568 8.08134 7.19045H6.35547C6.38196 6.5031 6.55417 5.92267 6.87209 5.44916C7.19002 4.97184 7.61013 4.61098 8.13244 4.36659C8.65852 4.1222 9.23949 4 9.87534 4C10.5717 4 11.1811 4.13174 11.7034 4.39523C12.2257 4.65489 12.6307 5.01957 12.9183 5.48926C13.2098 5.95513 13.3555 6.49928 13.3555 7.12172C13.3555 7.5494 13.2892 7.93508 13.1568 8.27876C13.0243 8.61862 12.8351 8.9222 12.589 9.1895C12.3468 9.4568 12.0554 9.69356 11.7148 9.89976C11.393 10.1021 11.1319 10.3122 10.9313 10.5298C10.7345 10.7475 10.5907 11.0053 10.4998 11.3031C10.409 11.601 10.3598 11.9695 10.3522 12.4086V12.5174H8.72854ZM9.5858 16C9.27545 16 9.00862 15.8893 8.78531 15.6678C8.56201 15.4425 8.45036 15.1714 8.45036 14.8544C8.45036 14.5413 8.56201 14.274 8.78531 14.0525C9.00862 13.8272 9.27545 13.7146 9.5858 13.7146C9.89237 13.7146 10.1573 13.8272 10.3806 14.0525C10.6077 14.274 10.7212 14.5413 10.7212 14.8544C10.7212 15.0644 10.6683 15.2573 10.5623 15.4329C10.4601 15.6048 10.3238 15.7422 10.1535 15.8453C9.98321 15.9484 9.79397 16 9.5858 16Z" fill="black"/>
</svg>
