<svg width="21" height="21" viewBox="0 0 21 21" fill="none" xmlns="http://www.w3.org/2000/svg">
<path d="M0.525396 7.26574L9.97502 12.6218C10.1346 12.7122 10.3157 12.7598 10.5 12.7598C10.6843 12.7598 10.8654 12.7122 11.025 12.6218L20.4746 7.26574C20.6333 7.17586 20.7652 7.04681 20.8573 6.89141C20.9494 6.73601 20.9985 6.55967 20.9996 6.37992C21.0003 6.19842 20.9522 6.01995 20.86 5.86259C20.7678 5.70522 20.6348 5.57455 20.4746 5.4838L11.025 0.137997C10.8654 0.0475935 10.6843 0 10.5 0C10.3157 0 10.1346 0.0475935 9.97502 0.137997L0.525396 5.4838C0.365168 5.57455 0.232228 5.70522 0.140038 5.86259C0.0478483 6.01995 -0.000317987 6.19842 0.00041653 6.37992C0.00152252 6.55967 0.0505614 6.73601 0.142659 6.89141C0.234757 7.04681 0.366707 7.17586 0.525396 7.26574ZM10.5 2.25984L17.8497 6.37992L10.5 10.5L3.15029 6.37992L10.5 2.25984ZM19.4246 9.64508L10.5 14.6201L1.57535 9.60388C1.45552 9.53578 1.32313 9.4916 1.18582 9.4739C1.04851 9.45621 0.908984 9.46533 0.775282 9.50075C0.64158 9.53618 0.516343 9.5972 0.406783 9.68031C0.297223 9.76341 0.205505 9.86696 0.136911 9.98499C2.55493e-05 10.2215 -0.0359526 10.5015 0.0368272 10.764C0.109607 11.0264 0.285237 11.2499 0.525396 11.3858L9.97502 16.7419C10.1346 16.8323 10.3157 16.8799 10.5 16.8799C10.6843 16.8799 10.8654 16.8323 11.025 16.7419L20.4746 11.3858C20.7148 11.2499 20.8904 11.0264 20.9632 10.764C21.036 10.5015 21 10.2215 20.8631 9.98499C20.7945 9.86696 20.7028 9.76341 20.5932 9.68031C20.4837 9.5972 20.3584 9.53618 20.2247 9.50075C20.091 9.46533 19.9515 9.45621 19.8142 9.4739C19.6769 9.4916 19.5445 9.53578 19.4246 9.60388V9.64508ZM19.4246 13.7652L10.5 18.7402L1.57535 13.724C1.45552 13.6559 1.32313 13.6117 1.18582 13.594C1.04851 13.5763 0.908984 13.5854 0.775282 13.6208C0.64158 13.6563 0.516343 13.7173 0.406783 13.8004C0.297223 13.8835 0.205505 13.987 0.136911 14.1051C2.55493e-05 14.3416 -0.0359526 14.6216 0.0368272 14.884C0.109607 15.1465 0.285237 15.37 0.525396 15.5059L9.97502 20.862C10.1346 20.9524 10.3157 21 10.5 21C10.6843 21 10.8654 20.9524 11.025 20.862L20.4746 15.5059C20.7148 15.37 20.8904 15.1465 20.9632 14.884C21.036 14.6216 21 14.3416 20.8631 14.1051C20.7945 13.987 20.7028 13.8835 20.5932 13.8004C20.4837 13.7173 20.3584 13.6563 20.2247 13.6208C20.091 13.5854 19.9515 13.5763 19.8142 13.594C19.6769 13.6117 19.5445 13.6559 19.4246 13.724V13.7652Z" fill="black"/>
<path d="M0.525396 7.26574L9.97502 12.6218C10.1346 12.7122 10.3157 12.7598 10.5 12.7598C10.6843 12.7598 10.8654 12.7122 11.025 12.6218L20.4746 7.26574C20.6333 7.17586 20.7652 7.04681 20.8573 6.89141C20.9494 6.73601 20.9985 6.55967 20.9996 6.37992C21.0003 6.19842 20.9522 6.01995 20.86 5.86259C20.7678 5.70522 20.6348 5.57455 20.4746 5.4838L11.025 0.137997C10.8654 0.0475935 10.6843 0 10.5 0C10.3157 0 10.1346 0.0475935 9.97502 0.137997L0.525396 5.4838C0.365168 5.57455 0.232228 5.70522 0.140038 5.86259C0.0478483 6.01995 -0.000317987 6.19842 0.00041653 6.37992C0.00152252 6.55967 0.0505614 6.73601 0.142659 6.89141C0.234757 7.04681 0.366707 7.17586 0.525396 7.26574ZM10.5 2.25984L17.8497 6.37992L10.5 10.5L3.15029 6.37992L10.5 2.25984ZM19.4246 9.64508L10.5 14.6201L1.57535 9.60388C1.45552 9.53578 1.32313 9.4916 1.18582 9.4739C1.04851 9.45621 0.908984 9.46533 0.775282 9.50075C0.64158 9.53618 0.516343 9.5972 0.406783 9.68031C0.297223 9.76341 0.205505 9.86696 0.136911 9.98499C2.55493e-05 10.2215 -0.0359526 10.5015 0.0368272 10.764C0.109607 11.0264 0.285237 11.2499 0.525396 11.3858L9.97502 16.7419C10.1346 16.8323 10.3157 16.8799 10.5 16.8799C10.6843 16.8799 10.8654 16.8323 11.025 16.7419L20.4746 11.3858C20.7148 11.2499 20.8904 11.0264 20.9632 10.764C21.036 10.5015 21 10.2215 20.8631 9.98499C20.7945 9.86696 20.7028 9.76341 20.5932 9.68031C20.4837 9.5972 20.3584 9.53618 20.2247 9.50075C20.091 9.46533 19.9515 9.45621 19.8142 9.4739C19.6769 9.4916 19.5445 9.53578 19.4246 9.60388V9.64508ZM19.4246 13.7652L10.5 18.7402L1.57535 13.724C1.45552 13.6559 1.32313 13.6117 1.18582 13.594C1.04851 13.5763 0.908984 13.5854 0.775282 13.6208C0.64158 13.6563 0.516343 13.7173 0.406783 13.8004C0.297223 13.8835 0.205505 13.987 0.136911 14.1051C2.55493e-05 14.3416 -0.0359526 14.6216 0.0368272 14.884C0.109607 15.1465 0.285237 15.37 0.525396 15.5059L9.97502 20.862C10.1346 20.9524 10.3157 21 10.5 21C10.6843 21 10.8654 20.9524 11.025 20.862L20.4746 15.5059C20.7148 15.37 20.8904 15.1465 20.9632 14.884C21.036 14.6216 21 14.3416 20.8631 14.1051C20.7945 13.987 20.7028 13.8835 20.5932 13.8004C20.4837 13.7173 20.3584 13.6563 20.2247 13.6208C20.091 13.5854 19.9515 13.5763 19.8142 13.594C19.6769 13.6117 19.5445 13.6559 19.4246 13.724V13.7652Z" fill="#1DC0FB"/>
</svg>
