<svg width="23" height="20" viewBox="0 0 23 20" fill="none" xmlns="http://www.w3.org/2000/svg">
<path d="M4 8C4.55228 8 5 8.44771 5 9V19C5 19.5523 4.55228 20 4 20H1C0.447715 20 1.61065e-08 19.5523 0 19V9C0 8.44771 0.447715 8 1 8H4ZM22 14C22.5523 14 23 14.4477 23 15V19C23 19.5523 22.5523 20 22 20H7C6.44772 20 6 19.5523 6 19V15C6 14.4477 6.44772 14 7 14H22ZM22 7C22.5523 7 23 7.44772 23 8V12C23 12.5523 22.5523 13 22 13H7C6.44772 13 6 12.5523 6 12V8C6 7.44772 6.44772 7 7 7H22ZM22 0C22.5523 0 23 0.447715 23 1V5C23 5.55228 22.5523 6 22 6H7C6.44772 6 6 5.55228 6 5V1C6 0.447715 6.44772 2.0133e-09 7 0H22Z" fill="#FB781D"/>
</svg>
