<svg width="140" height="81" viewBox="0 0 140 81" fill="none" xmlns="http://www.w3.org/2000/svg">
<path d="M0.210938 61.5C4.8776 60.5 14.8109 58.3 17.2109 57.5C20.2109 56.5 55.7109 60 69.2109 45.5C82.7109 31 72.2109 53 91.2109 33.5C110.211 14 105.211 57 133.211 5" stroke="#1DC0FB" stroke-width="2"/>
<path opacity="0.54" d="M17.2109 57.5C14.8109 58.3 4.8776 60.5 0.210938 61.5V81H133.211V5C105.211 57 110.211 14 91.2109 33.5C72.2109 53 82.7109 31 69.2109 45.5C55.7109 60 20.2109 56.5 17.2109 57.5Z" fill="url(#paint0_linear_4569_5946)"/>
<g filter="url(#filter0_d_4569_5946)">
<circle cx="132.211" cy="7" r="3" fill="#1CB8F1"/>
</g>
<g filter="url(#filter1_f_4569_5946)">
<circle cx="132.211" cy="7" r="2.25" fill="white"/>
</g>
<defs>
<filter id="filter0_d_4569_5946" x="125.211" y="0" width="14" height="14" filterUnits="userSpaceOnUse" color-interpolation-filters="sRGB">
<feFlood flood-opacity="0" result="BackgroundImageFix"/>
<feColorMatrix in="SourceAlpha" type="matrix" values="0 0 0 0 0 0 0 0 0 0 0 0 0 0 0 0 0 0 127 0" result="hardAlpha"/>
<feOffset/>
<feGaussianBlur stdDeviation="2"/>
<feComposite in2="hardAlpha" operator="out"/>
<feColorMatrix type="matrix" values="0 0 0 0 0.113725 0 0 0 0 0.752941 0 0 0 0 0.984314 0 0 0 1 0"/>
<feBlend mode="normal" in2="BackgroundImageFix" result="effect1_dropShadow_4569_5946"/>
<feBlend mode="normal" in="SourceGraphic" in2="effect1_dropShadow_4569_5946" result="shape"/>
</filter>
<filter id="filter1_f_4569_5946" x="125.961" y="0.75" width="12.5" height="12.5" filterUnits="userSpaceOnUse" color-interpolation-filters="sRGB">
<feFlood flood-opacity="0" result="BackgroundImageFix"/>
<feBlend mode="normal" in="SourceGraphic" in2="BackgroundImageFix" result="shape"/>
<feGaussianBlur stdDeviation="2" result="effect1_foregroundBlur_4569_5946"/>
</filter>
<linearGradient id="paint0_linear_4569_5946" x1="66.7109" y1="5" x2="66.7109" y2="106" gradientUnits="userSpaceOnUse">
<stop stop-color="#1DC0FB"/>
<stop offset="1" stop-color="#117295" stop-opacity="0"/>
</linearGradient>
</defs>
</svg>
