<svg width="18" height="17" viewBox="0 0 18 17" fill="currentColor" xmlns="http://www.w3.org/2000/svg">
<path d="M9.00076 4.57766C8.23794 4.57766 7.49226 4.8077 6.858 5.23869C6.22374 5.66967 5.7294 6.28224 5.43748 6.99895C5.14557 7.71565 5.06919 8.50428 5.218 9.26513C5.36682 10.026 5.73415 10.7249 6.27354 11.2734C6.81294 11.8219 7.50016 12.1955 8.24832 12.3468C8.99648 12.4982 9.77197 12.4205 10.4767 12.1236C11.1815 11.8268 11.7838 11.324 12.2076 10.679C12.6314 10.034 12.8576 9.27568 12.8576 8.49993C12.8566 7.46001 12.4499 6.463 11.7268 5.72766C11.0037 4.99233 10.0233 4.57875 9.00076 4.57766ZM9.00076 11.1148C8.49222 11.1148 7.99509 10.9614 7.57225 10.6741C7.14942 10.3868 6.81985 9.97839 6.62524 9.50059C6.43063 9.02279 6.37971 8.49703 6.47892 7.9898C6.57813 7.48257 6.82302 7.01665 7.18262 6.65096C7.54221 6.28526 8.00036 6.03622 8.49914 5.93533C8.99791 5.83444 9.5149 5.88622 9.98473 6.08413C10.4546 6.28204 10.8561 6.61719 11.1387 7.0472C11.4212 7.47721 11.572 7.98276 11.572 8.49993C11.572 9.19343 11.3011 9.85853 10.8189 10.3489C10.3367 10.8393 9.6827 11.1148 9.00076 11.1148ZM17.8346 6.8011C17.8167 6.70904 17.7795 6.62199 17.7256 6.54585C17.6716 6.46971 17.6022 6.40627 17.522 6.35984L15.1251 4.97071L15.1155 2.22349C15.1152 2.12887 15.0947 2.03545 15.0555 1.94968C15.0162 1.8639 14.9591 1.78781 14.8881 1.72667C14.0186 0.978738 13.0174 0.405571 11.9376 0.0376409C11.8526 0.00837082 11.7624 -0.00246125 11.673 0.00584233C11.5836 0.0141459 11.4969 0.041401 11.4185 0.0858521L9.00076 1.46028L6.58058 0.0834006C6.50212 0.0386992 6.41531 0.0112383 6.32576 0.00279299C6.23621 -0.00565232 6.14591 0.0051059 6.0607 0.0343722C4.9817 0.404992 3.98161 0.980345 3.11342 1.72994C3.04252 1.79099 2.98548 1.86695 2.94622 1.95257C2.90697 2.0382 2.88643 2.13146 2.88602 2.22594L2.87397 4.97561L0.477088 6.36475C0.396899 6.41117 0.327478 6.47461 0.273544 6.55075C0.219609 6.62689 0.182426 6.71395 0.164522 6.806C-0.0548406 7.92702 -0.0548406 9.08101 0.164522 10.202C0.182426 10.2941 0.219609 10.3811 0.273544 10.4573C0.327478 10.5334 0.396899 10.5969 0.477088 10.6433L2.87397 12.0324L2.88361 14.7796C2.8839 14.8743 2.90439 14.9677 2.94365 15.0535C2.98291 15.1392 3.04001 15.2153 3.11101 15.2765C3.98046 16.0244 4.98171 16.5976 6.06151 16.9655C6.14654 16.9948 6.23666 17.0056 6.32606 16.9973C6.41546 16.989 6.50216 16.9617 6.58058 16.9173L9.00076 15.5396L11.4209 16.9165C11.5167 16.9707 11.6247 16.9989 11.7343 16.9982C11.8045 16.9982 11.8743 16.9866 11.9408 16.9639C13.0197 16.5937 14.0198 16.0189 14.8881 15.2699C14.959 15.2089 15.016 15.1329 15.0553 15.0473C15.0946 14.9617 15.1151 14.8684 15.1155 14.7739L15.1276 12.0243L17.5244 10.6351C17.6046 10.5887 17.674 10.5253 17.728 10.4491C17.7819 10.373 17.8191 10.2859 17.837 10.1939C18.0551 9.07374 18.0543 7.9209 17.8346 6.8011ZM16.6293 9.65373L14.3337 10.9816C14.2331 11.0397 14.1498 11.1244 14.0926 11.2267C14.046 11.3084 13.997 11.3951 13.9472 11.4768C13.8834 11.5798 13.8495 11.699 13.8492 11.8208L13.8371 14.4561C13.2201 14.9488 12.5326 15.3429 11.7986 15.6246L9.48287 14.3122C9.38673 14.2581 9.27857 14.23 9.16869 14.2305H9.15343C9.0562 14.2305 8.95817 14.2305 8.86095 14.2305C8.74596 14.2276 8.63227 14.2558 8.53151 14.3122L6.21418 15.6278C5.47857 15.3483 4.78924 14.9562 4.17004 14.465L4.1612 11.8339C4.1608 11.7119 4.12685 11.5924 4.06317 11.489C4.01335 11.4073 3.96434 11.3256 3.91854 11.239C3.86175 11.1351 3.77848 11.0487 3.67748 10.9889L1.37943 9.65782C1.26051 8.89282 1.26051 8.11358 1.37943 7.34858L3.67105 6.01828C3.77164 5.96012 3.85492 5.87543 3.91211 5.77314C3.95871 5.69143 4.00773 5.60481 4.05755 5.52309C4.12132 5.42005 4.15528 5.30083 4.15557 5.17908L4.16763 2.54381C4.78467 2.05103 5.4721 1.65698 6.20614 1.3753L8.51865 2.68762C8.61929 2.74436 8.73307 2.77258 8.84809 2.76934C8.94532 2.76934 9.04335 2.76934 9.14057 2.76934C9.25556 2.77226 9.36926 2.74406 9.47001 2.68762L11.7873 1.37203C12.523 1.65155 13.2123 2.04367 13.8315 2.53482L13.8403 5.166C13.8407 5.288 13.8747 5.40745 13.9384 5.51084C13.9882 5.59255 14.0372 5.67427 14.083 5.76088C14.1398 5.86475 14.223 5.95113 14.324 6.01093L16.6221 7.34205C16.7426 8.10763 16.7439 8.88772 16.6261 9.65373H16.6293Z" fill="currentColor"/>
</svg>
