<svg width="25" height="25" viewBox="0 0 25 25" fill="none" xmlns="http://www.w3.org/2000/svg">
<g clip-path="url(#clip0_2092_8550)">
<path d="M12.5 25C19.4036 25 25 19.4036 25 12.5C25 5.59644 19.4036 0 12.5 0C5.59644 0 0 5.59644 0 12.5C0 19.4036 5.59644 25 12.5 25Z" fill="#26A17B"/>
<path fill-rule="evenodd" clip-rule="evenodd" d="M14.0016 13.5805V13.579C13.9156 13.5852 13.4727 13.6118 12.4844 13.6118C11.6953 13.6118 11.1398 13.5883 10.9445 13.579V13.5813C7.90703 13.4477 5.63984 12.9188 5.63984 12.286C5.63984 11.654 7.90703 11.125 10.9445 10.9891V13.0547C11.143 13.0688 11.7117 13.1024 12.4977 13.1024C13.4406 13.1024 13.9133 13.0633 14.0016 13.0555V10.9907C17.0328 11.1258 19.2945 11.6547 19.2945 12.286C19.2945 12.9188 17.0328 13.4461 14.0016 13.5805ZM14.0016 10.7758V8.92739H18.2313V6.10864H6.71484V8.92739H10.9445V10.775C7.50703 10.9329 4.92188 11.6141 4.92188 12.4297C4.92188 13.2454 7.50703 13.9258 10.9445 14.0844V20.0079H14.0016V14.0829C17.4336 13.925 20.0125 13.2446 20.0125 12.4297C20.0125 11.6149 17.4336 10.9344 14.0016 10.7758Z" fill="white"/>
</g>
<defs>
<clipPath id="clip0_2092_8550">
<rect width="25" height="25" fill="white"/>
</clipPath>
</defs>
</svg>
