<svg width="18" height="22" viewBox="0 0 18 22" fill="none" xmlns="http://www.w3.org/2000/svg">
<path d="M4.75 7.44586C4.75 6.27577 3.06555 5.96563 2.61866 7.06045C1.53765 9.70877 0.75 12.0779 0.75 13.3588C0.75 17.4408 4.33172 20.75 8.75 20.75C13.1683 20.75 16.75 17.4408 16.75 13.3588C16.75 11.9826 15.8408 9.3504 14.6355 6.46533C13.0741 2.72802 12.2934 0.859373 11.3297 0.758723C11.0214 0.726517 10.6849 0.78442 10.4098 0.917059C9.55 1.33158 9.55 3.36967 9.55 7.44586C9.55 8.67048 8.47548 9.66324 7.15 9.66324C5.82452 9.66324 4.75 8.67048 4.75 7.44586Z" stroke="currentColor" stroke-width="1.5"/>
</svg>
