<svg width="16" height="16" viewBox="0 0 16 16" fill="none" xmlns="http://www.w3.org/2000/svg">
<g clip-path="url(#clip0_7811_6722)">
<path d="M7.96905 8.03121C8.87588 8.93805 10.3525 8.93805 11.2593 8.03121C12.1661 7.12438 12.1654 5.64825 11.2585 4.74141C10.3517 3.83457 8.87639 3.83457 7.96957 4.74141C7.06274 5.64825 7.06197 7.12438 7.96879 8.03096L7.96905 8.03121ZM10.5543 5.44592C11.0727 5.96438 11.0735 6.80799 10.5551 7.32644C10.0366 7.84489 9.19252 7.84489 8.67381 7.32644C8.15589 6.8085 8.15589 5.96438 8.67459 5.44592C9.19303 4.92747 10.0366 4.92799 10.5543 5.44592Z" fill="currentColor"/>
<path d="M11.5198 11.8105C12.0723 11.4652 12.5696 11.0722 13.0044 10.6373C14.7855 8.85618 15.5267 6.3803 15.8206 4.33205C15.8235 4.30959 15.8271 4.28766 15.8299 4.26521C15.8312 4.26108 15.8312 4.2554 15.8312 4.24972C15.9945 3.07863 16.0116 2.05282 15.9953 1.38701C15.9778 0.629595 15.3703 0.022369 14.6129 0.00456257C13.9463 -0.0109213 12.9205 0.00585289 11.7489 0.168692C11.7476 0.168692 11.7461 0.168692 11.744 0.169466C11.7138 0.173079 11.6834 0.177982 11.6532 0.182885C11.6519 0.182885 11.6511 0.182111 11.6504 0.182885C9.60497 0.478111 7.13972 1.22005 5.36349 2.9963C4.92866 3.43114 4.53486 3.92921 4.19035 4.48095C3.30185 3.88843 2.56638 4.07579 1.57001 5.07218C0.300865 6.34082 0.028353 9.48947 0.00151477 9.84456C-0.00983989 9.9896 0.0430625 10.1313 0.146029 10.2342C0.248995 10.3372 0.390412 10.3899 0.5357 10.3788C0.575183 10.3759 1.26911 10.3217 2.13722 10.1511C2.05129 10.2286 1.96097 10.3145 1.86677 10.4089C0.597118 11.6786 0.325122 14.8268 0.298284 15.1819C0.28693 15.3269 0.339832 15.4686 0.442798 15.5715C0.545764 15.6745 0.687181 15.7271 0.832469 15.716C1.18756 15.6892 4.33615 15.418 5.60581 14.1483C5.69175 14.0624 5.76994 13.9813 5.84194 13.9024C5.67704 14.7522 5.62413 15.425 5.6213 15.4644C5.60994 15.6095 5.66284 15.7511 5.76581 15.8541C5.86877 15.9571 6.01019 16.0097 6.15548 15.9986C6.51057 15.9718 9.65994 15.6998 10.9288 14.4309C11.9252 13.4345 12.1125 12.699 11.52 11.8105H11.5198ZM2.27451 5.77643C2.69154 5.3594 2.99656 5.15011 3.2074 5.13798C3.33643 5.13024 3.49565 5.19785 3.70546 5.35295C3.70133 5.36147 3.69771 5.36921 3.69358 5.37772C3.66675 5.43114 3.64146 5.48611 3.61617 5.53979C3.48585 5.81798 3.36611 6.10701 3.25695 6.40637C3.23295 6.47114 3.20895 6.53592 3.1865 6.60224C3.18082 6.61643 3.17592 6.63114 3.17179 6.64534C3.15217 6.7003 3.13385 6.75527 3.11605 6.81101C3.10546 6.83992 3.09566 6.8696 3.08637 6.89979C3.06727 6.95837 3.04843 7.01824 3.03063 7.07811C3.0074 7.15501 2.98495 7.23243 2.96224 7.30985C2.94031 7.38805 2.91863 7.46624 2.89747 7.54521C2.88327 7.59734 2.87011 7.65024 2.85669 7.70314C2.83966 7.77076 2.82289 7.83837 2.80663 7.90676C2.78831 7.98134 2.77205 8.05695 2.75528 8.13282C2.75321 8.13927 2.75166 8.14624 2.75115 8.15398C2.73154 8.23863 2.71373 8.32379 2.69618 8.4105C2.69334 8.42753 2.68973 8.44508 2.68637 8.46263C2.66883 8.55218 2.65179 8.64224 2.63554 8.73308C2.63347 8.7465 2.63063 8.76043 2.62779 8.77463C2.61231 8.85927 2.59889 8.94443 2.5847 9.03037C2.01671 9.17411 1.46085 9.26495 1.06059 9.31863C1.2064 8.23295 1.57362 6.47785 2.27451 5.77669V5.77643ZM14.5889 1.00069C14.7017 1.00353 14.8023 1.04921 14.8764 1.12327C14.9504 1.19734 14.9961 1.29798 14.999 1.41076C15.0108 1.93282 15.0031 2.69308 14.9122 3.57024C14.3535 3.35114 13.8426 3.01643 13.4129 2.58676C12.9838 2.15759 12.6491 1.64689 12.4294 1.0874C13.3066 0.996563 14.0668 0.988821 14.5889 1.00069ZM12.7084 3.29127C13.2932 3.87605 14.0005 4.31708 14.775 4.58134C14.4712 6.38289 13.7871 8.44534 12.2999 9.93256C11.8031 10.4293 11.2106 10.8655 10.5379 11.2311C10.4682 11.2686 10.397 11.3057 10.325 11.3424C10.2532 11.379 10.1804 11.4149 10.1072 11.4502C10.0326 11.4856 9.95645 11.5207 9.87955 11.5553C9.65555 11.6539 9.42433 11.747 9.18563 11.8335C8.54434 12.0647 7.84913 12.2484 7.10566 12.3816C7.02101 12.3971 6.93663 12.4113 6.85121 12.4247C6.74824 12.4417 6.64347 12.4577 6.53844 12.4727C6.53844 12.4585 6.53844 12.4446 6.53715 12.4304C6.53586 12.3896 6.53225 12.348 6.52657 12.3086C6.52451 12.2866 6.52089 12.265 6.51676 12.2438C6.51676 12.2381 6.51547 12.2324 6.51393 12.2283C6.50902 12.201 6.50335 12.1741 6.49638 12.1473C6.48993 12.1184 6.48089 12.0895 6.47238 12.0598C6.4667 12.0415 6.46051 12.0239 6.45406 12.0048C6.44838 11.9865 6.44141 11.9682 6.43367 11.9506C6.42593 11.9302 6.41741 11.9091 6.40838 11.8887C6.39651 11.8613 6.38361 11.8345 6.37096 11.8077C6.35754 11.7803 6.34361 11.7535 6.32864 11.7259C6.31445 11.699 6.29896 11.6724 6.28425 11.6461C6.28296 11.6461 6.28296 11.6448 6.28296 11.6448C6.26593 11.618 6.25045 11.5911 6.2329 11.5651C6.16245 11.4551 6.08219 11.3496 5.99677 11.2459C5.96581 11.2092 5.93484 11.1726 5.90232 11.1359C5.87265 11.1021 5.84245 11.0675 5.81226 11.0345C5.78981 11.0105 5.7671 10.9865 5.74465 10.9628C5.70233 10.9176 5.65871 10.8727 5.61562 10.8283C5.54439 10.7558 5.47265 10.6838 5.40143 10.6128C5.33098 10.5424 5.25898 10.4704 5.18646 10.3994C5.14079 10.355 5.09563 10.3114 5.04918 10.2675C5.00118 10.2224 4.95189 10.1775 4.9026 10.1336C4.88995 10.1222 4.87653 10.1104 4.86311 10.0982C4.83008 10.0693 4.79679 10.042 4.76376 10.0144C4.72066 9.9785 4.67705 9.94314 4.63189 9.91088C4.60376 9.88843 4.57409 9.86727 4.54518 9.84689C4.52118 9.82985 4.49796 9.81385 4.47344 9.7976C4.45589 9.78572 4.43757 9.77437 4.41925 9.76301C4.37409 9.73334 4.32686 9.70598 4.27912 9.68069C4.25435 9.66727 4.23112 9.6554 4.20661 9.64327C4.14803 9.61437 4.08893 9.58908 4.027 9.56792C4.0079 9.56018 3.98906 9.55372 3.96997 9.54753C3.95577 9.5434 3.94106 9.5385 3.92635 9.53489C3.8861 9.52302 3.8461 9.51372 3.80507 9.50521C3.80145 9.50314 3.79655 9.50237 3.79087 9.50237C3.77332 9.49876 3.75629 9.49592 3.73952 9.49334C3.73307 9.49127 3.72533 9.4905 3.71836 9.4905C3.70004 9.48766 3.68094 9.4856 3.66262 9.48405C3.619 9.47837 3.57307 9.47631 3.52585 9.47708C3.5661 9.19321 3.61255 8.91553 3.66597 8.64508C3.68146 8.56611 3.69771 8.48792 3.71397 8.40972C3.73642 8.30547 3.75965 8.20327 3.78442 8.10108C3.80558 8.01231 3.82803 7.92353 3.85074 7.83605C3.87397 7.74805 3.89797 7.66211 3.92197 7.57618C4.14261 6.80327 4.4257 6.09721 4.76944 5.46314C5.13434 4.79089 5.57123 4.1976 6.068 3.70108C7.55546 2.21359 9.61762 1.52947 11.4184 1.22521C11.6834 2.00018 12.1244 2.70753 12.7084 3.29179V3.29127ZM2.57102 11.1135C2.82315 10.8613 3.02908 10.6892 3.20017 10.5873C3.27475 10.5421 3.34236 10.5055 3.41643 10.4879C3.4234 10.4851 3.43114 10.483 3.43888 10.4822C3.44662 10.4802 3.45436 10.4794 3.4621 10.4773C3.4621 10.4773 3.46253 10.4773 3.46339 10.4773C3.4732 10.476 3.48378 10.4753 3.49436 10.4745C3.53591 10.4724 3.57952 10.4766 3.62675 10.4887C3.64094 10.4928 3.65488 10.4972 3.66907 10.5013C3.68094 10.5049 3.69229 10.5091 3.70442 10.514C3.72275 10.5225 3.74184 10.5302 3.76145 10.54C3.77203 10.5449 3.78339 10.5506 3.79526 10.5571C3.83603 10.5795 3.88197 10.6071 3.93048 10.6402C3.94752 10.6515 3.96506 10.665 3.98339 10.6776C4.02493 10.7078 4.06855 10.7416 4.11577 10.7806C4.13126 10.7932 4.14751 10.8066 4.16429 10.8208C4.21512 10.8631 4.27009 10.9109 4.32712 10.9638C4.34338 10.9785 4.36015 10.994 4.37719 11.0095C4.42648 11.0546 4.4786 11.1039 4.53357 11.1573C4.55757 11.1798 4.58209 11.2046 4.60686 11.2291C4.63654 11.2572 4.66596 11.2869 4.69641 11.3171C4.7266 11.3473 4.75628 11.377 4.78389 11.4059C4.80866 11.4306 4.83189 11.4539 4.85357 11.4771C4.93821 11.5646 5.01408 11.6448 5.0804 11.7194C5.09588 11.7364 5.11059 11.7524 5.12479 11.7695C5.17769 11.8293 5.22491 11.8851 5.26569 11.9372C5.28969 11.9669 5.31085 11.995 5.33124 12.0224C5.35162 12.0497 5.36994 12.0753 5.3862 12.1013C5.39523 12.1132 5.40375 12.1261 5.41098 12.1388C5.42646 12.1628 5.43988 12.186 5.45252 12.2084C5.50672 12.3049 5.53278 12.386 5.54001 12.458C5.54078 12.4616 5.54078 12.4644 5.54078 12.467C5.54078 12.4699 5.54155 12.4719 5.54078 12.474C5.54155 12.476 5.54155 12.4789 5.54078 12.481C5.54207 12.4838 5.54207 12.4879 5.54155 12.4915C5.54233 12.498 5.54233 12.5062 5.54155 12.5127C5.54155 12.5225 5.54078 12.5331 5.53949 12.5429C5.53949 12.5486 5.53743 12.5548 5.53665 12.5612C5.53665 12.564 5.53588 12.5661 5.53536 12.5682C5.53536 12.5695 5.53536 12.571 5.53459 12.5731C5.53381 12.5767 5.5333 12.58 5.53252 12.5837C5.51626 12.6577 5.48039 12.7261 5.43601 12.8015C5.43472 12.8043 5.4324 12.8064 5.43111 12.8092C5.32685 12.9839 5.15343 13.1911 4.90131 13.4433C4.83782 13.5068 4.76531 13.5679 4.68505 13.6257C3.8861 14.2092 2.34367 14.524 1.35659 14.6572C1.48768 13.6791 1.79968 12.1566 2.37257 11.3514C2.43606 11.2626 2.5016 11.1829 2.57128 11.1132L2.57102 11.1135ZM7.22617 13.3731C7.25869 13.3674 7.29095 13.3617 7.32191 13.3548C7.3952 13.3421 7.46772 13.3287 7.53894 13.314C7.56088 13.3104 7.58333 13.3062 7.60371 13.3013C7.68836 13.2843 7.77223 13.2668 7.85532 13.2484C7.93997 13.2301 8.02384 13.211 8.10693 13.1914C8.38796 13.1246 8.66202 13.0505 8.92782 12.9682C8.9864 12.9506 9.04343 12.9328 9.10124 12.9145C9.21891 12.8771 9.33504 12.8384 9.44859 12.7968C9.48936 12.7826 9.53039 12.7687 9.5691 12.7537C9.83955 12.6551 10.1017 12.548 10.3554 12.4324C10.4088 12.4084 10.4612 12.3844 10.5133 12.3591C10.5296 12.3527 10.5451 12.3444 10.5598 12.3367C10.59 12.3233 10.6189 12.3099 10.6478 12.2951C10.8029 12.5052 10.8705 12.6644 10.8628 12.7932C10.8509 13.0038 10.6416 13.3091 10.2243 13.7261C9.52317 14.4273 7.76758 14.7935 6.68167 14.9393C6.73534 14.539 6.82669 13.9839 6.97043 13.4159C7.05637 13.4017 7.14101 13.3878 7.22617 13.3728V13.3731Z" fill="currentColor"/>
</g>
<defs>
<clipPath id="clip0_7811_6722">
<rect width="16" height="16" fill="white"/>
</clipPath>
</defs>
</svg>
