<svg width="313" height="90" viewBox="0 0 313 90" fill="none" xmlns="http://www.w3.org/2000/svg">
<path d="M54.0286 28.6093C48.5413 28.6093 10.1299 43.6093 8.30078 44.3236V89.7998H297.301V14.7998C285.716 20.0379 260.353 29.8951 251.573 27.4189C242.793 24.9427 239.379 25.911 238.769 26.7046C207.674 48.8476 187.554 36.2285 180.237 31.4665C174.384 27.657 171.702 28.4506 171.092 29.3236C125.364 65.5142 149.143 3.84727 112.56 28.6093C75.978 53.3713 59.516 28.6093 54.0286 28.6093Z" fill="url(#paint0_linear_4666_755)"/>
<g filter="url(#filter0_f_4666_755)">
<path d="M7.75514 42.9264C6.98347 43.2277 6.60219 44.0976 6.90354 44.8693C7.20489 45.6409 8.07474 46.0222 8.84642 45.7209L8.30078 44.3236L7.75514 42.9264ZM171.092 29.3236L172.023 30.4998L172.196 30.363L172.322 30.1824L171.092 29.3236ZM180.237 31.4665L181.056 30.2094L180.237 31.4665ZM238.769 26.7046L239.639 27.9265L239.822 27.7963L239.959 27.6184L238.769 26.7046ZM289.301 14.7998C289.301 19.2181 292.883 22.7998 297.301 22.7998C301.719 22.7998 305.301 19.2181 305.301 14.7998C305.301 10.3815 301.719 6.7998 297.301 6.7998C292.883 6.7998 289.301 10.3815 289.301 14.7998ZM8.30078 44.3236L8.84642 45.7209C9.75877 45.3646 19.8062 41.441 30.3072 37.6076C35.5595 35.6903 40.9116 33.8006 45.2857 32.392C47.4742 31.6872 49.4017 31.1081 50.9416 30.7067C52.5387 30.2905 53.5619 30.1093 54.0286 30.1093V28.6093V27.1093C53.1235 27.1093 51.746 27.3968 50.185 27.8037C48.5668 28.2254 46.5789 28.8238 44.3661 29.5364C39.9376 30.9626 34.5436 32.8675 29.2785 34.7895C18.7448 38.6348 8.6719 42.5684 7.75514 42.9264L8.30078 44.3236ZM54.0286 28.6093V30.1093C54.2526 30.1093 54.784 30.2727 55.8463 30.9108C56.8507 31.514 58.0199 32.339 59.5097 33.3375C62.4288 35.2938 66.2797 37.7068 71.1635 39.3194C81.0442 42.5819 94.7851 42.4524 113.401 29.8515L112.56 28.6093L111.719 27.3671C93.7532 39.5282 80.9719 39.3987 72.1042 36.4707C67.6138 34.988 64.0339 32.7581 61.1799 30.8454C59.7831 29.9093 58.4802 28.9932 57.391 28.339C56.3599 27.7197 55.1765 27.1093 54.0286 27.1093V28.6093ZM112.56 28.6093L113.401 29.8515C122.492 23.6976 127.221 23.3605 130.062 24.7172C131.533 25.4198 132.729 26.6701 133.857 28.3368C135.005 30.0331 135.952 31.9462 137.086 33.9822C139.249 37.8652 142.057 42.1337 147.704 42.4947C150.439 42.6695 153.67 41.9085 157.598 40.0198C161.533 38.1283 166.259 35.0612 172.023 30.4998L171.092 29.3236L170.161 28.1474C164.493 32.6336 159.959 35.556 156.299 37.316C152.632 39.0788 149.932 39.631 147.895 39.5008C143.996 39.2516 141.888 36.4368 139.707 32.5221C138.669 30.6592 137.587 28.4949 136.341 26.6552C135.076 24.7857 133.514 23.0413 131.355 22.0102C126.936 19.8997 120.919 21.1399 111.719 27.3671L112.56 28.6093ZM171.092 29.3236L172.322 30.1824C172.175 30.3924 172.311 29.9906 173.528 30.1294C174.69 30.262 176.6 30.8889 179.419 32.7237L180.237 31.4665L181.056 30.2094C178.022 28.2346 175.663 27.3535 173.868 27.1488C172.129 26.9503 170.618 27.3818 169.862 28.4647L171.092 29.3236ZM180.237 31.4665L179.419 32.7237C183.121 35.1329 190.232 39.648 200.437 40.6675C210.679 41.6906 223.839 39.1781 239.639 27.9265L238.769 26.7046L237.899 25.4828C222.605 36.3741 210.157 38.6235 200.735 37.6823C191.278 36.7375 184.671 32.5621 181.056 30.2094L180.237 31.4665ZM238.769 26.7046L239.959 27.6184C239.83 27.7859 239.802 27.697 240.225 27.5693C240.6 27.4564 241.213 27.3497 242.131 27.3354C243.965 27.3067 246.861 27.6486 251.166 28.8626L251.573 27.4189L251.98 25.9752C247.505 24.713 244.304 24.301 242.084 24.3357C240.974 24.3531 240.071 24.4826 239.359 24.697C238.697 24.8967 238.013 25.2265 237.58 25.7908L238.769 26.7046ZM251.573 27.4189L251.166 28.8626C253.705 29.5788 257.222 29.3699 261.049 28.7064C264.934 28.0327 269.361 26.8478 273.837 25.4324C282.794 22.6007 292.087 18.8033 297.919 16.1666L297.301 14.7998L296.683 13.433C290.93 16.0344 281.749 19.7846 272.933 22.572C268.523 23.9662 264.238 25.1087 260.537 25.7505C256.777 26.4024 253.83 26.4971 251.98 25.9752L251.573 27.4189Z" fill="#D283F2"/>
</g>
<path d="M7.75514 42.9264C6.98347 43.2277 6.60219 44.0976 6.90354 44.8693C7.20489 45.6409 8.07474 46.0222 8.84642 45.7209L8.30078 44.3236L7.75514 42.9264ZM171.092 29.3236L172.023 30.4998L172.196 30.363L172.322 30.1824L171.092 29.3236ZM180.237 31.4665L181.056 30.2094L180.237 31.4665ZM238.769 26.7046L239.639 27.9265L239.822 27.7963L239.959 27.6184L238.769 26.7046ZM289.301 14.7998C289.301 19.2181 292.883 22.7998 297.301 22.7998C301.719 22.7998 305.301 19.2181 305.301 14.7998C305.301 10.3815 301.719 6.7998 297.301 6.7998C292.883 6.7998 289.301 10.3815 289.301 14.7998ZM8.30078 44.3236L8.84642 45.7209C9.75877 45.3646 19.8062 41.441 30.3072 37.6076C35.5595 35.6903 40.9116 33.8006 45.2857 32.392C47.4742 31.6872 49.4017 31.1081 50.9416 30.7067C52.5387 30.2905 53.5619 30.1093 54.0286 30.1093V28.6093V27.1093C53.1235 27.1093 51.746 27.3968 50.185 27.8037C48.5668 28.2254 46.5789 28.8238 44.3661 29.5364C39.9376 30.9626 34.5436 32.8675 29.2785 34.7895C18.7448 38.6348 8.6719 42.5684 7.75514 42.9264L8.30078 44.3236ZM54.0286 28.6093V30.1093C54.2526 30.1093 54.784 30.2727 55.8463 30.9108C56.8507 31.514 58.0199 32.339 59.5097 33.3375C62.4288 35.2938 66.2797 37.7068 71.1635 39.3194C81.0442 42.5819 94.7851 42.4524 113.401 29.8515L112.56 28.6093L111.719 27.3671C93.7532 39.5282 80.9719 39.3987 72.1042 36.4707C67.6138 34.988 64.0339 32.7581 61.1799 30.8454C59.7831 29.9093 58.4802 28.9932 57.391 28.339C56.3599 27.7197 55.1765 27.1093 54.0286 27.1093V28.6093ZM112.56 28.6093L113.401 29.8515C122.492 23.6976 127.221 23.3605 130.062 24.7172C131.533 25.4198 132.729 26.6701 133.857 28.3368C135.005 30.0331 135.952 31.9462 137.086 33.9822C139.249 37.8652 142.057 42.1337 147.704 42.4947C150.439 42.6695 153.67 41.9085 157.598 40.0198C161.533 38.1283 166.259 35.0612 172.023 30.4998L171.092 29.3236L170.161 28.1474C164.493 32.6336 159.959 35.556 156.299 37.316C152.632 39.0788 149.932 39.631 147.895 39.5008C143.996 39.2516 141.888 36.4368 139.707 32.5221C138.669 30.6592 137.587 28.4949 136.341 26.6552C135.076 24.7857 133.514 23.0413 131.355 22.0102C126.936 19.8997 120.919 21.1399 111.719 27.3671L112.56 28.6093ZM171.092 29.3236L172.322 30.1824C172.175 30.3924 172.311 29.9906 173.528 30.1294C174.69 30.262 176.6 30.8889 179.419 32.7237L180.237 31.4665L181.056 30.2094C178.022 28.2346 175.663 27.3535 173.868 27.1488C172.129 26.9503 170.618 27.3818 169.862 28.4647L171.092 29.3236ZM180.237 31.4665L179.419 32.7237C183.121 35.1329 190.232 39.648 200.437 40.6675C210.679 41.6906 223.839 39.1781 239.639 27.9265L238.769 26.7046L237.899 25.4828C222.605 36.3741 210.157 38.6235 200.735 37.6823C191.278 36.7375 184.671 32.5621 181.056 30.2094L180.237 31.4665ZM238.769 26.7046L239.959 27.6184C239.83 27.7859 239.802 27.697 240.225 27.5693C240.6 27.4564 241.213 27.3497 242.131 27.3354C243.965 27.3067 246.861 27.6486 251.166 28.8626L251.573 27.4189L251.98 25.9752C247.505 24.713 244.304 24.301 242.084 24.3357C240.974 24.3531 240.071 24.4826 239.359 24.697C238.697 24.8967 238.013 25.2265 237.58 25.7908L238.769 26.7046ZM251.573 27.4189L251.166 28.8626C253.705 29.5788 257.222 29.3699 261.049 28.7064C264.934 28.0327 269.361 26.8478 273.837 25.4324C282.794 22.6007 292.087 18.8033 297.919 16.1666L297.301 14.7998L296.683 13.433C290.93 16.0344 281.749 19.7846 272.933 22.572C268.523 23.9662 264.238 25.1087 260.537 25.7505C256.777 26.4024 253.83 26.4971 251.98 25.9752L251.573 27.4189Z" fill="#D283F2"/>
<defs>
<filter id="filter0_f_4666_755" x="0.000781059" y="-0.000195503" width="312.1" height="52.6244" filterUnits="userSpaceOnUse" color-interpolation-filters="sRGB">
<feFlood flood-opacity="0" result="BackgroundImageFix"/>
<feBlend mode="normal" in="SourceGraphic" in2="BackgroundImageFix" result="shape"/>
<feGaussianBlur stdDeviation="3.4" result="effect1_foregroundBlur_4666_755"/>
</filter>
<linearGradient id="paint0_linear_4666_755" x1="152.801" y1="14.7998" x2="152.801" y2="89.7998" gradientUnits="userSpaceOnUse">
<stop stop-color="#420BB0"/>
<stop offset="1" stop-color="#420BB0" stop-opacity="0"/>
</linearGradient>
</defs>
</svg>
