<svg width="313" height="98" viewBox="0 0 313 98" fill="none" xmlns="http://www.w3.org/2000/svg">
<path d="M54.0286 30.0559C48.5413 30.0559 10.1299 9.28918 8.30078 8.30029V97.3003H297.301V49.1744C285.716 41.9225 260.353 28.2758 251.573 31.7039C242.793 35.1321 239.379 33.7916 238.769 32.6928C207.674 2.03716 187.554 19.5076 180.237 26.1002C174.384 31.3743 171.702 30.2756 171.092 29.067C125.364 -21.0369 149.143 64.3375 112.56 30.0559C75.978 -4.22569 59.516 30.0559 54.0286 30.0559Z" fill="url(#paint0_linear_4666_760)"/>
<g filter="url(#filter0_f_4666_760)">
<path d="M7.5874 9.61975C6.85866 9.22576 6.58729 8.31561 6.98128 7.58686C7.37526 6.85812 8.28542 6.58675 9.01416 6.98074L8.30078 8.30024L7.5874 9.61975ZM171.092 29.067L172.2 28.0558L172.339 28.2077L172.431 28.3914L171.092 29.067ZM180.237 26.1002L181.242 27.2145L180.237 26.1002ZM238.769 32.6928L239.822 31.6246L239.976 31.7762L240.081 31.965L238.769 32.6928ZM289.301 49.1743C289.301 44.756 292.883 41.1743 297.301 41.1743C301.719 41.1743 305.301 44.756 305.301 49.1743C305.301 53.5926 301.719 57.1743 297.301 57.1743C292.883 57.1743 289.301 53.5926 289.301 49.1743ZM8.30078 8.30024L9.01416 6.98074C9.92622 7.47383 19.9714 12.9046 30.4694 18.2101C35.7207 20.864 41.0685 23.478 45.4367 25.4256C47.6228 26.4003 49.5429 27.1987 51.0724 27.7507C51.8377 28.0268 52.4863 28.2343 53.01 28.3711C53.557 28.514 53.8802 28.5559 54.0286 28.5559V30.0559V31.5559C53.4911 31.5559 52.8712 31.4355 52.2518 31.2737C51.6091 31.1058 50.868 30.8662 50.0542 30.5726C48.4257 29.985 46.4303 29.1533 44.2151 28.1656C39.7807 26.1885 34.3824 23.549 29.1163 20.8876C18.5796 15.5626 8.50446 10.1155 7.5874 9.61975L8.30078 8.30024ZM54.0286 30.0559V28.5559C53.9998 28.5559 54.1199 28.5595 54.4522 28.3723C54.7685 28.1942 55.1646 27.9081 55.6596 27.4965C56.6647 26.6607 57.8363 25.5162 59.3246 24.1354C62.2329 21.4369 66.0938 18.0835 71.0102 15.8361C75.9632 13.5719 81.9629 12.4407 89.0995 14.1338C96.2038 15.8193 104.317 20.275 113.586 28.9614L112.56 30.0559L111.535 31.1504C102.513 22.696 94.8495 18.5813 88.407 17.0528C81.9967 15.532 76.6787 16.5434 72.2575 18.5645C67.7997 20.6023 64.2298 23.6766 61.365 26.3346C59.9667 27.6321 58.6662 28.8981 57.5778 29.8031C57.026 30.2619 56.4701 30.6789 55.9245 30.9862C55.3949 31.2845 54.7433 31.5559 54.0286 31.5559V30.0559ZM112.56 30.0559L113.586 28.9614C118.102 33.1929 121.552 35.4451 124.205 36.3874C126.776 37.3004 128.521 36.9663 129.881 36.0669C131.351 35.095 132.585 33.3247 133.752 30.9383C134.917 28.5553 135.888 25.8432 137.005 23.0681C138.092 20.366 139.312 17.6225 140.928 15.4938C142.569 13.331 144.723 11.6711 147.667 11.4106C150.542 11.1562 153.854 12.2687 157.78 14.8816C161.722 17.5054 166.446 21.7512 172.2 28.0558L171.092 29.067L169.984 30.0782C164.306 23.8568 159.77 19.8103 156.117 17.379C152.448 14.9366 149.83 14.231 147.932 14.3989C146.103 14.5608 144.641 15.5636 143.317 17.3075C141.968 19.0855 140.873 21.4924 139.788 24.1881C138.733 26.8107 137.675 29.7435 136.447 32.256C135.22 34.7652 133.696 37.141 131.536 38.5693C129.266 40.0699 126.511 40.3899 123.201 39.2144C119.974 38.0682 116.165 35.4892 111.535 31.1504L112.56 30.0559ZM171.092 29.067L172.431 28.3914C172.383 28.2964 172.49 28.6869 173.464 28.5329C174.522 28.3659 176.393 27.5451 179.233 24.9858L180.237 26.1002L181.242 27.2145C178.229 29.9293 175.832 31.1963 173.932 31.4962C171.95 31.8093 170.41 31.0462 169.753 29.7426L171.092 29.067ZM180.237 26.1002L179.233 24.9858C182.903 21.6789 190.059 15.37 200.381 13.9425C210.804 12.501 224.049 16.0742 239.822 31.6246L238.769 32.6928L237.716 33.761C222.394 18.6556 210.032 15.6363 200.792 16.9142C191.451 18.2061 184.888 23.9288 181.242 27.2145L180.237 26.1002ZM238.769 32.6928L240.081 31.965C240.017 31.8509 240.023 31.9547 240.37 32.0996C240.699 32.2368 241.263 32.3773 242.14 32.3963C243.899 32.4344 246.742 31.9799 251.027 30.3066L251.573 31.7039L252.119 33.1011C247.624 34.856 244.37 35.4453 242.075 35.3956C240.924 35.3706 239.972 35.1842 239.215 34.8682C238.476 34.5599 237.826 34.0841 237.458 33.4206L238.769 32.6928ZM251.573 31.7039L251.027 30.3066C253.68 29.271 257.305 29.5877 261.143 30.509C265.058 31.4487 269.504 33.0978 273.987 35.06C282.958 38.987 292.262 44.2501 298.097 47.9029L297.301 49.1743L296.505 50.4457C290.755 46.8466 281.585 41.6605 272.784 37.8082C268.38 35.8808 264.115 34.3077 260.443 33.4262C256.694 32.5263 253.856 32.4227 252.119 33.1011L251.573 31.7039Z" fill="#D283F2"/>
</g>
<path d="M7.5874 9.61975C6.85866 9.22576 6.58729 8.31561 6.98128 7.58686C7.37526 6.85812 8.28542 6.58675 9.01416 6.98074L8.30078 8.30024L7.5874 9.61975ZM171.092 29.067L172.2 28.0558L172.339 28.2077L172.431 28.3914L171.092 29.067ZM180.237 26.1002L181.242 27.2145L180.237 26.1002ZM238.769 32.6928L239.822 31.6246L239.976 31.7762L240.081 31.965L238.769 32.6928ZM289.301 49.1743C289.301 44.756 292.883 41.1743 297.301 41.1743C301.719 41.1743 305.301 44.756 305.301 49.1743C305.301 53.5926 301.719 57.1743 297.301 57.1743C292.883 57.1743 289.301 53.5926 289.301 49.1743ZM8.30078 8.30024L9.01416 6.98074C9.92622 7.47383 19.9714 12.9046 30.4694 18.2101C35.7207 20.864 41.0685 23.478 45.4367 25.4256C47.6228 26.4003 49.5429 27.1987 51.0724 27.7507C51.8377 28.0268 52.4863 28.2343 53.01 28.3711C53.557 28.514 53.8802 28.5559 54.0286 28.5559V30.0559V31.5559C53.4911 31.5559 52.8712 31.4355 52.2518 31.2737C51.6091 31.1058 50.868 30.8662 50.0542 30.5726C48.4257 29.985 46.4303 29.1533 44.2151 28.1656C39.7807 26.1885 34.3824 23.549 29.1163 20.8876C18.5796 15.5626 8.50446 10.1155 7.5874 9.61975L8.30078 8.30024ZM54.0286 30.0559V28.5559C53.9998 28.5559 54.1199 28.5595 54.4522 28.3723C54.7685 28.1942 55.1646 27.9081 55.6596 27.4965C56.6647 26.6607 57.8363 25.5162 59.3246 24.1354C62.2329 21.4369 66.0938 18.0835 71.0102 15.8361C75.9632 13.5719 81.9629 12.4407 89.0995 14.1338C96.2038 15.8193 104.317 20.275 113.586 28.9614L112.56 30.0559L111.535 31.1504C102.513 22.696 94.8495 18.5813 88.407 17.0528C81.9967 15.532 76.6787 16.5434 72.2575 18.5645C67.7997 20.6023 64.2298 23.6766 61.365 26.3346C59.9667 27.6321 58.6662 28.8981 57.5778 29.8031C57.026 30.2619 56.4701 30.6789 55.9245 30.9862C55.3949 31.2845 54.7433 31.5559 54.0286 31.5559V30.0559ZM112.56 30.0559L113.586 28.9614C118.102 33.1929 121.552 35.4451 124.205 36.3874C126.776 37.3004 128.521 36.9663 129.881 36.0669C131.351 35.095 132.585 33.3247 133.752 30.9383C134.917 28.5553 135.888 25.8432 137.005 23.0681C138.092 20.366 139.312 17.6225 140.928 15.4938C142.569 13.331 144.723 11.6711 147.667 11.4106C150.542 11.1562 153.854 12.2687 157.78 14.8816C161.722 17.5054 166.446 21.7512 172.2 28.0558L171.092 29.067L169.984 30.0782C164.306 23.8568 159.77 19.8103 156.117 17.379C152.448 14.9366 149.83 14.231 147.932 14.3989C146.103 14.5608 144.641 15.5636 143.317 17.3075C141.968 19.0855 140.873 21.4924 139.788 24.1881C138.733 26.8107 137.675 29.7435 136.447 32.256C135.22 34.7652 133.696 37.141 131.536 38.5693C129.266 40.0699 126.511 40.3899 123.201 39.2144C119.974 38.0682 116.165 35.4892 111.535 31.1504L112.56 30.0559ZM171.092 29.067L172.431 28.3914C172.383 28.2964 172.49 28.6869 173.464 28.5329C174.522 28.3659 176.393 27.5451 179.233 24.9858L180.237 26.1002L181.242 27.2145C178.229 29.9293 175.832 31.1963 173.932 31.4962C171.95 31.8093 170.41 31.0462 169.753 29.7426L171.092 29.067ZM180.237 26.1002L179.233 24.9858C182.903 21.6789 190.059 15.37 200.381 13.9425C210.804 12.501 224.049 16.0742 239.822 31.6246L238.769 32.6928L237.716 33.761C222.394 18.6556 210.032 15.6363 200.792 16.9142C191.451 18.2061 184.888 23.9288 181.242 27.2145L180.237 26.1002ZM238.769 32.6928L240.081 31.965C240.017 31.8509 240.023 31.9547 240.37 32.0996C240.699 32.2368 241.263 32.3773 242.14 32.3963C243.899 32.4344 246.742 31.9799 251.027 30.3066L251.573 31.7039L252.119 33.1011C247.624 34.856 244.37 35.4453 242.075 35.3956C240.924 35.3706 239.972 35.1842 239.215 34.8682C238.476 34.5599 237.826 34.0841 237.458 33.4206L238.769 32.6928ZM251.573 31.7039L251.027 30.3066C253.68 29.271 257.305 29.5877 261.143 30.509C265.058 31.4487 269.504 33.0978 273.987 35.06C282.958 38.987 292.262 44.2501 298.097 47.9029L297.301 49.1743L296.505 50.4457C290.755 46.8466 281.585 41.6605 272.784 37.8082C268.38 35.8808 264.115 34.3077 260.443 33.4262C256.694 32.5263 253.856 32.4227 252.119 33.1011L251.573 31.7039Z" fill="#D283F2"/>
<defs>
<filter id="filter0_f_4666_760" x="0.000781059" y="-0.000195503" width="312.1" height="63.9745" filterUnits="userSpaceOnUse" color-interpolation-filters="sRGB">
<feFlood flood-opacity="0" result="BackgroundImageFix"/>
<feBlend mode="normal" in="SourceGraphic" in2="BackgroundImageFix" result="shape"/>
<feGaussianBlur stdDeviation="3.4" result="effect1_foregroundBlur_4666_760"/>
</filter>
<linearGradient id="paint0_linear_4666_760" x1="152.801" y1="97.6299" x2="152.801" y2="14.2336" gradientUnits="userSpaceOnUse">
<stop stop-color="#420BB0" stop-opacity="0"/>
<stop offset="1" stop-color="#420BB0"/>
</linearGradient>
</defs>
</svg>
