<svg width="313" height="94" viewBox="0 0 313 94" fill="none" xmlns="http://www.w3.org/2000/svg">
<g filter="url(#filter0_d_4666_765)">
<path d="M22.8008 12.531C19.6008 12.531 11.8008 9.71047 8.30078 8.30022V85.3003H297.301V37.9157C266.301 28.3259 240.801 28.89 228.301 24.0951C218.301 20.2592 211.801 21.1806 209.801 22.1208C168.301 39.89 173.301 17.3258 152.301 26.3515C131.301 35.3771 150.301 26.3515 125.801 25.5053C101.301 24.6591 114.301 13.6592 88.8008 15.0695C63.3008 16.4797 76.3008 31.9925 55.8008 20.1464C35.3008 8.30022 26.8008 12.531 22.8008 12.531Z" fill="url(#paint0_linear_4666_765)" shape-rendering="crispEdges"/>
</g>
<g filter="url(#filter1_f_4666_765)">
<path d="M7.74018 9.69139C6.97179 9.38178 6.59987 8.50788 6.90948 7.73949C7.21909 6.97109 8.09298 6.59917 8.86138 6.90878L8.30078 8.30009L7.74018 9.69139ZM55.8008 20.1462L56.5513 18.8475L55.8008 20.1462ZM88.8008 15.0693L88.8836 16.567V16.567L88.8008 15.0693ZM152.301 26.3513L151.708 24.9732V24.9732L152.301 26.3513ZM209.801 22.1206L210.439 23.4781L210.415 23.4893L210.391 23.4996L209.801 22.1206ZM228.301 24.095L228.838 22.6945V22.6945L228.301 24.095ZM289.301 37.9155C289.301 33.4972 292.883 29.9155 297.301 29.9155C301.719 29.9155 305.301 33.4972 305.301 37.9155C305.301 42.3338 301.719 45.9155 297.301 45.9155C292.883 45.9155 289.301 42.3338 289.301 37.9155ZM8.30078 8.30009L8.86138 6.90878C10.5834 7.60263 13.3717 8.64651 16.1155 9.51411C18.9354 10.4058 21.4686 11.0309 22.8008 11.0309V12.5309V14.0309C20.933 14.0309 17.9662 13.2457 15.211 12.3745C12.3799 11.4793 9.51818 10.4078 7.74018 9.69139L8.30078 8.30009ZM22.8008 12.5309V11.0309C23.1863 11.0309 23.6657 10.9789 24.3166 10.8869C24.9324 10.8 25.7232 10.6738 26.5743 10.5667C28.323 10.3464 30.5093 10.1789 33.2352 10.4012C38.6912 10.8462 46.1544 12.8395 56.5513 18.8475L55.8008 20.1462L55.0503 21.445C44.9472 15.6068 37.9104 13.7925 32.9914 13.3913C30.5297 13.1905 28.5599 13.3403 26.9491 13.5431C26.1205 13.6475 25.4309 13.7593 24.7361 13.8575C24.0765 13.9506 23.4152 14.0309 22.8008 14.0309V12.5309ZM55.8008 20.1462L56.5513 18.8475C61.6943 21.8195 64.4626 22.8995 66.1568 23.0552C66.9285 23.1261 67.4273 22.9976 67.8386 22.785C68.2964 22.5484 68.7408 22.1608 69.3498 21.5338C70.5411 20.3074 72.1194 18.4075 75.0506 16.8069C77.9851 15.2045 82.1866 13.9328 88.7179 13.5716L88.8008 15.0693L88.8836 16.567C82.6649 16.9109 78.9289 18.1072 76.4884 19.4399C74.0446 20.7744 72.8105 22.2768 71.5017 23.6241C70.8608 24.2839 70.1333 24.976 69.216 25.4501C68.2524 25.9481 67.1731 26.1612 65.8823 26.0426C63.4515 25.8193 60.1573 24.3961 55.0503 21.445L55.8008 20.1462ZM88.8008 15.0693L88.7179 13.5716C95.1717 13.2147 99.3423 13.6313 102.336 14.5523C105.393 15.4931 107.118 16.9314 108.675 18.3224C110.194 19.6792 111.493 20.9232 113.862 21.9412C116.254 22.9694 119.832 23.7981 125.853 24.0061L125.801 25.5052L125.749 27.0043C119.519 26.7891 115.535 25.9256 112.677 24.6974C109.796 23.459 108.157 21.8825 106.677 20.5598C105.234 19.2713 103.896 18.1712 101.453 17.4196C98.9467 16.6484 95.1799 16.2188 88.8836 16.567L88.8008 15.0693ZM125.801 25.5052L125.853 24.0061C132.045 24.2199 135.661 24.9521 137.898 25.8775C139.036 26.3484 139.831 26.8745 140.425 27.4152C141.004 27.9425 141.364 28.4672 141.558 28.7227C141.774 29.0077 141.732 28.8825 141.579 28.8365C141.506 28.8146 141.643 28.8853 142.364 28.6954C143.783 28.3211 146.407 27.2516 151.708 24.9732L152.301 26.3513L152.893 27.7294C147.694 29.9639 144.818 31.1508 143.128 31.5962C142.294 31.8162 141.474 31.9375 140.716 31.7096C139.877 31.4576 139.421 30.8696 139.169 30.5376C138.894 30.1761 138.73 29.9296 138.405 29.6339C138.095 29.3516 137.605 29.0028 136.751 28.6497C135.003 27.9268 131.807 27.2135 125.749 27.0043L125.801 25.5052ZM152.301 26.3513L151.708 24.9732C157.169 22.6262 161.095 22.2737 164.576 22.9055C166.284 23.2153 167.831 23.7527 169.324 24.3338C170.858 24.9306 172.246 25.5358 173.858 26.0987C176.972 27.1862 180.677 28.0167 186.124 27.5152C191.611 27.0099 198.921 25.1473 209.21 20.7417L209.801 22.1206L210.391 23.4996C199.93 27.9787 192.303 29.9589 186.399 30.5025C180.456 31.0498 176.317 30.1352 172.869 28.931C171.199 28.348 169.627 27.6707 168.236 27.1294C166.805 26.5724 165.466 26.116 164.041 25.8573C161.256 25.352 157.932 25.5636 152.893 27.7294L152.301 26.3513ZM209.801 22.1206L209.163 20.7632C210.463 20.152 212.856 19.6809 216.114 19.8181C219.415 19.9572 223.699 20.7234 228.838 22.6945L228.301 24.095L227.764 25.4955C222.902 23.6307 218.937 22.9397 215.988 22.8155C212.995 22.6894 211.139 23.1491 210.439 23.4781L209.801 22.1206ZM228.301 24.095L228.838 22.6945C231.817 23.8371 235.632 24.6816 240.242 25.4491C244.85 26.2161 250.137 26.8892 256.072 27.7217C267.907 29.382 282.127 31.6514 297.744 36.4825L297.301 37.9155L296.857 39.3485C281.475 34.5899 267.445 32.3465 255.655 30.6926C249.777 29.8681 244.408 29.1838 239.75 28.4084C235.095 27.6334 231.035 26.7504 227.764 25.4955L228.301 24.095Z" fill="#D283F2"/>
</g>
<g filter="url(#filter2_d_4666_765)">
<path d="M7.74018 9.69139C6.97179 9.38178 6.59987 8.50788 6.90948 7.73949C7.21909 6.97109 8.09298 6.59917 8.86138 6.90878L8.30078 8.30009L7.74018 9.69139ZM55.8008 20.1462L56.5513 18.8475L55.8008 20.1462ZM88.8008 15.0693L88.8836 16.567V16.567L88.8008 15.0693ZM152.301 26.3513L151.708 24.9732V24.9732L152.301 26.3513ZM209.801 22.1206L210.439 23.4781L210.415 23.4893L210.391 23.4996L209.801 22.1206ZM228.301 24.095L228.838 22.6945V22.6945L228.301 24.095ZM289.301 37.9155C289.301 33.4972 292.883 29.9155 297.301 29.9155C301.719 29.9155 305.301 33.4972 305.301 37.9155C305.301 42.3338 301.719 45.9155 297.301 45.9155C292.883 45.9155 289.301 42.3338 289.301 37.9155ZM8.30078 8.30009L8.86138 6.90878C10.5834 7.60263 13.3717 8.64651 16.1155 9.51411C18.9354 10.4058 21.4686 11.0309 22.8008 11.0309V12.5309V14.0309C20.933 14.0309 17.9662 13.2457 15.211 12.3745C12.3799 11.4793 9.51818 10.4078 7.74018 9.69139L8.30078 8.30009ZM22.8008 12.5309V11.0309C23.1863 11.0309 23.6657 10.9789 24.3166 10.8869C24.9324 10.8 25.7232 10.6738 26.5743 10.5667C28.323 10.3464 30.5093 10.1789 33.2352 10.4012C38.6912 10.8462 46.1544 12.8395 56.5513 18.8475L55.8008 20.1462L55.0503 21.445C44.9472 15.6068 37.9104 13.7925 32.9914 13.3913C30.5297 13.1905 28.5599 13.3403 26.9491 13.5431C26.1205 13.6475 25.4309 13.7593 24.7361 13.8575C24.0765 13.9506 23.4152 14.0309 22.8008 14.0309V12.5309ZM55.8008 20.1462L56.5513 18.8475C61.6943 21.8195 64.4626 22.8995 66.1568 23.0552C66.9285 23.1261 67.4273 22.9976 67.8386 22.785C68.2964 22.5484 68.7408 22.1608 69.3498 21.5338C70.5411 20.3074 72.1194 18.4075 75.0506 16.8069C77.9851 15.2045 82.1866 13.9328 88.7179 13.5716L88.8008 15.0693L88.8836 16.567C82.6649 16.9109 78.9289 18.1072 76.4884 19.4399C74.0446 20.7744 72.8105 22.2768 71.5017 23.6241C70.8608 24.2839 70.1333 24.976 69.216 25.4501C68.2524 25.9481 67.1731 26.1612 65.8823 26.0426C63.4515 25.8193 60.1573 24.3961 55.0503 21.445L55.8008 20.1462ZM88.8008 15.0693L88.7179 13.5716C95.1717 13.2147 99.3423 13.6313 102.336 14.5523C105.393 15.4931 107.118 16.9314 108.675 18.3224C110.194 19.6792 111.493 20.9232 113.862 21.9412C116.254 22.9694 119.832 23.7981 125.853 24.0061L125.801 25.5052L125.749 27.0043C119.519 26.7891 115.535 25.9256 112.677 24.6974C109.796 23.459 108.157 21.8825 106.677 20.5598C105.234 19.2713 103.896 18.1712 101.453 17.4196C98.9467 16.6484 95.1799 16.2188 88.8836 16.567L88.8008 15.0693ZM125.801 25.5052L125.853 24.0061C132.045 24.2199 135.661 24.9521 137.898 25.8775C139.036 26.3484 139.831 26.8745 140.425 27.4152C141.004 27.9425 141.364 28.4672 141.558 28.7227C141.774 29.0077 141.732 28.8825 141.579 28.8365C141.506 28.8146 141.643 28.8853 142.364 28.6954C143.783 28.3211 146.407 27.2516 151.708 24.9732L152.301 26.3513L152.893 27.7294C147.694 29.9639 144.818 31.1508 143.128 31.5962C142.294 31.8162 141.474 31.9375 140.716 31.7096C139.877 31.4576 139.421 30.8696 139.169 30.5376C138.894 30.1761 138.73 29.9296 138.405 29.6339C138.095 29.3516 137.605 29.0028 136.751 28.6497C135.003 27.9268 131.807 27.2135 125.749 27.0043L125.801 25.5052ZM152.301 26.3513L151.708 24.9732C157.169 22.6262 161.095 22.2737 164.576 22.9055C166.284 23.2153 167.831 23.7527 169.324 24.3338C170.858 24.9306 172.246 25.5358 173.858 26.0987C176.972 27.1862 180.677 28.0167 186.124 27.5152C191.611 27.0099 198.921 25.1473 209.21 20.7417L209.801 22.1206L210.391 23.4996C199.93 27.9787 192.303 29.9589 186.399 30.5025C180.456 31.0498 176.317 30.1352 172.869 28.931C171.199 28.348 169.627 27.6707 168.236 27.1294C166.805 26.5724 165.466 26.116 164.041 25.8573C161.256 25.352 157.932 25.5636 152.893 27.7294L152.301 26.3513ZM209.801 22.1206L209.163 20.7632C210.463 20.152 212.856 19.6809 216.114 19.8181C219.415 19.9572 223.699 20.7234 228.838 22.6945L228.301 24.095L227.764 25.4955C222.902 23.6307 218.937 22.9397 215.988 22.8155C212.995 22.6894 211.139 23.1491 210.439 23.4781L209.801 22.1206ZM228.301 24.095L228.838 22.6945C231.817 23.8371 235.632 24.6816 240.242 25.4491C244.85 26.2161 250.137 26.8892 256.072 27.7217C267.907 29.382 282.127 31.6514 297.744 36.4825L297.301 37.9155L296.857 39.3485C281.475 34.5899 267.445 32.3465 255.655 30.6926C249.777 29.8681 244.408 29.1838 239.75 28.4084C235.095 27.6334 231.035 26.7504 227.764 25.4955L228.301 24.095Z" fill="#D283F2"/>
</g>
<defs>
<filter id="filter0_d_4666_765" x="4.30078" y="8.30029" width="297" height="85" filterUnits="userSpaceOnUse" color-interpolation-filters="sRGB">
<feFlood flood-opacity="0" result="BackgroundImageFix"/>
<feColorMatrix in="SourceAlpha" type="matrix" values="0 0 0 0 0 0 0 0 0 0 0 0 0 0 0 0 0 0 127 0" result="hardAlpha"/>
<feOffset dy="4"/>
<feGaussianBlur stdDeviation="2"/>
<feComposite in2="hardAlpha" operator="out"/>
<feColorMatrix type="matrix" values="0 0 0 0 0 0 0 0 0 0 0 0 0 0 0 0 0 0 0.25 0"/>
<feBlend mode="normal" in2="BackgroundImageFix" result="effect1_dropShadow_4666_765"/>
<feBlend mode="normal" in="SourceGraphic" in2="effect1_dropShadow_4666_765" result="shape"/>
</filter>
<filter id="filter1_f_4666_765" x="0.000781059" y="-0.000195503" width="312.1" height="52.7157" filterUnits="userSpaceOnUse" color-interpolation-filters="sRGB">
<feFlood flood-opacity="0" result="BackgroundImageFix"/>
<feBlend mode="normal" in="SourceGraphic" in2="BackgroundImageFix" result="shape"/>
<feGaussianBlur stdDeviation="3.4" result="effect1_foregroundBlur_4666_765"/>
</filter>
<filter id="filter2_d_4666_765" x="2.80078" y="6.7998" width="306.5" height="47.1157" filterUnits="userSpaceOnUse" color-interpolation-filters="sRGB">
<feFlood flood-opacity="0" result="BackgroundImageFix"/>
<feColorMatrix in="SourceAlpha" type="matrix" values="0 0 0 0 0 0 0 0 0 0 0 0 0 0 0 0 0 0 127 0" result="hardAlpha"/>
<feOffset dy="4"/>
<feGaussianBlur stdDeviation="2"/>
<feComposite in2="hardAlpha" operator="out"/>
<feColorMatrix type="matrix" values="0 0 0 0 0 0 0 0 0 0 0 0 0 0 0 0 0 0 0.25 0"/>
<feBlend mode="normal" in2="BackgroundImageFix" result="effect1_dropShadow_4666_765"/>
<feBlend mode="normal" in="SourceGraphic" in2="effect1_dropShadow_4666_765" result="shape"/>
</filter>
<linearGradient id="paint0_linear_4666_765" x1="152.801" y1="81.6336" x2="152.801" y2="23.249" gradientUnits="userSpaceOnUse">
<stop stop-color="#420BB0" stop-opacity="0"/>
<stop offset="1" stop-color="#420BB0"/>
</linearGradient>
</defs>
</svg>
