<svg width="313" height="102" viewBox="0 0 313 102" fill="none" xmlns="http://www.w3.org/2000/svg">
<g filter="url(#filter0_d_4666_750)">
<path d="M22.8008 46.5409C19.6008 46.5409 11.8008 50.0677 8.30078 51.8311V93.7998H297.301V14.7998C266.301 26.7909 240.801 26.0855 228.301 32.0811C218.301 36.8775 211.801 35.7254 209.801 34.5498C168.301 12.3311 173.301 40.5455 152.301 29.2597C131.301 17.974 150.301 29.2597 125.801 30.3178C101.301 31.3758 114.301 45.1302 88.8008 43.3668C63.3008 41.6034 76.3008 22.2061 55.8008 37.0186C35.3008 51.8311 26.8008 46.5409 22.8008 46.5409Z" fill="url(#paint0_linear_4666_750)" shape-rendering="crispEdges"/>
</g>
<g filter="url(#filter1_f_4666_750)">
<path d="M7.62586 50.4915C6.88603 50.8643 6.58845 51.7662 6.9612 52.506C7.33394 53.2459 8.23587 53.5434 8.9757 53.1707L8.30078 51.8311L7.62586 50.4915ZM209.801 34.5498L210.561 33.2567L210.535 33.2415L210.509 33.2274L209.801 34.5498ZM228.301 32.0811L227.652 30.7286L228.301 32.0811ZM289.301 14.7998C289.301 19.2181 292.883 22.7998 297.301 22.7998C301.719 22.7998 305.301 19.2181 305.301 14.7998C305.301 10.3815 301.719 6.7998 297.301 6.7998C292.883 6.7998 289.301 10.3815 289.301 14.7998ZM8.30078 51.8311L8.9757 53.1707C10.6946 52.3047 13.4778 51.0018 16.2148 49.9197C17.5837 49.3785 18.9204 48.9006 20.0949 48.5603C21.3 48.211 22.2206 48.0409 22.8008 48.0409V46.5409V45.0409C21.781 45.0409 20.5265 45.3117 19.2598 45.6788C17.9624 46.0548 16.5304 46.5689 15.1118 47.1298C12.2737 48.2519 9.40696 49.5942 7.62586 50.4915L8.30078 51.8311ZM22.8008 46.5409V48.0409C23.1578 48.0409 23.615 48.1016 24.2655 48.2165C24.8722 48.3236 25.6747 48.4834 26.5284 48.6178C28.2932 48.8957 30.5067 49.1081 33.2655 48.8267C38.7869 48.2636 46.2829 45.7465 56.6793 38.2344L55.8008 37.0186L54.9223 35.8028C44.8187 43.1032 37.8147 45.3472 32.9611 45.8422C30.5324 46.0899 28.5896 45.9054 26.9951 45.6543C26.1691 45.5243 25.4911 45.3865 24.7872 45.2622C24.1272 45.1456 23.4437 45.0409 22.8008 45.0409V46.5409ZM55.8008 37.0186L56.6793 38.2344C59.2168 36.4009 61.1939 35.1278 62.7647 34.2896C64.3484 33.4446 65.4292 33.0912 66.1907 33.0037C66.8877 32.9236 67.3267 33.0629 67.7132 33.3127C68.1686 33.607 68.6219 34.0997 69.2412 34.897C70.4309 36.4285 71.9961 38.7878 74.9237 40.7867C77.8776 42.8037 82.1184 44.4083 88.6973 44.8632L88.8008 43.3668L88.9043 41.8704C82.7331 41.4436 79.0364 39.9623 76.6154 38.3092C74.168 36.6381 72.9206 34.7432 71.6104 33.0565C70.9797 32.2447 70.2611 31.3873 69.3415 30.793C68.353 30.1542 67.2138 29.8664 65.8483 30.0233C64.5474 30.1728 63.0813 30.7203 61.3524 31.6429C59.6108 32.5722 57.5098 33.9332 54.9223 35.8028L55.8008 37.0186ZM88.8008 43.3668L88.6973 44.8632C95.174 45.3111 99.3921 44.7906 102.433 43.6206C105.527 42.4301 107.255 40.6194 108.793 38.9009C110.321 37.1944 111.624 35.6384 113.98 34.3723C116.34 33.1038 119.878 32.075 125.866 31.8164L125.801 30.3178L125.736 28.8192C119.474 29.0896 115.449 30.1768 112.559 31.7297C109.665 33.2851 108.03 35.2559 106.558 36.8997C105.097 38.5318 103.762 39.895 101.356 40.8207C98.897 41.7667 95.1776 42.3042 88.9043 41.8704L88.8008 43.3668ZM125.801 30.3178L125.866 31.8164C132.081 31.548 135.74 30.6275 138.013 29.4514C139.17 28.8532 139.962 28.192 140.542 27.5325C141.103 26.8937 141.446 26.2673 141.645 25.9387C141.893 25.531 141.869 25.6871 141.675 25.7601C141.511 25.8219 141.563 25.7045 142.276 25.9397C143.674 26.4005 146.281 27.7275 151.591 30.581L152.301 29.2597L153.011 27.9385C147.821 25.1491 144.927 23.6548 143.216 23.0905C142.375 22.8132 141.47 22.6325 140.62 22.9519C139.74 23.2825 139.302 24.0172 139.081 24.381C138.812 24.8239 138.631 25.1618 138.288 25.5522C137.964 25.9217 137.471 26.3544 136.635 26.7867C134.925 27.6715 131.771 28.5586 125.736 28.8192L125.801 30.3178ZM152.301 29.2597L151.591 30.581C157.074 33.5276 161.07 33.996 164.641 33.1858C166.376 32.7919 167.942 32.1107 169.437 31.3834C170.979 30.6327 172.356 29.8816 173.964 29.1796C177.053 27.8305 180.708 26.8072 186.09 27.4269C191.528 28.053 198.809 30.3663 209.093 35.8722L209.801 34.5498L210.509 33.2274C200.043 27.6239 192.386 25.132 186.433 24.4466C180.425 23.7548 176.236 24.9138 172.763 26.4302C171.09 27.1609 169.505 28.0135 168.124 28.6859C166.694 29.3817 165.374 29.9432 163.977 30.2602C161.282 30.8717 158.028 30.6347 153.011 27.9385L152.301 29.2597ZM209.801 34.5498L209.041 35.843C210.38 36.6301 212.829 37.2267 216.13 37.0529C219.476 36.8766 223.793 35.9067 228.949 33.4335L228.301 32.0811L227.652 30.7286C222.808 33.0518 218.876 33.9041 215.972 34.057C213.023 34.2123 211.222 33.6451 210.561 33.2567L209.801 34.5498ZM228.301 32.0811L228.949 33.4335C231.906 32.0154 235.699 30.9643 240.302 30.0063C244.904 29.0483 250.181 28.2083 256.122 27.1662C267.964 25.0891 282.204 22.2477 297.842 16.1988L297.301 14.7998L296.76 13.4008C281.398 19.3429 267.387 22.1445 255.604 24.2113C249.733 25.2412 244.354 26.0984 239.69 27.0692C235.027 28.0399 230.945 29.149 227.652 30.7286L228.301 32.0811Z" fill="#D283F2"/>
</g>
<g filter="url(#filter2_d_4666_750)">
<path d="M7.62586 50.4915C6.88603 50.8643 6.58845 51.7662 6.9612 52.506C7.33394 53.2459 8.23587 53.5434 8.9757 53.1707L8.30078 51.8311L7.62586 50.4915ZM209.801 34.5498L210.561 33.2567L210.535 33.2415L210.509 33.2274L209.801 34.5498ZM228.301 32.0811L227.652 30.7286L228.301 32.0811ZM289.301 14.7998C289.301 19.2181 292.883 22.7998 297.301 22.7998C301.719 22.7998 305.301 19.2181 305.301 14.7998C305.301 10.3815 301.719 6.7998 297.301 6.7998C292.883 6.7998 289.301 10.3815 289.301 14.7998ZM8.30078 51.8311L8.9757 53.1707C10.6946 52.3047 13.4778 51.0018 16.2148 49.9197C17.5837 49.3785 18.9204 48.9006 20.0949 48.5603C21.3 48.211 22.2206 48.0409 22.8008 48.0409V46.5409V45.0409C21.781 45.0409 20.5265 45.3117 19.2598 45.6788C17.9624 46.0548 16.5304 46.5689 15.1118 47.1298C12.2737 48.2519 9.40696 49.5942 7.62586 50.4915L8.30078 51.8311ZM22.8008 46.5409V48.0409C23.1578 48.0409 23.615 48.1016 24.2655 48.2165C24.8722 48.3236 25.6747 48.4834 26.5284 48.6178C28.2932 48.8957 30.5067 49.1081 33.2655 48.8267C38.7869 48.2636 46.2829 45.7465 56.6793 38.2344L55.8008 37.0186L54.9223 35.8028C44.8187 43.1032 37.8147 45.3472 32.9611 45.8422C30.5324 46.0899 28.5896 45.9054 26.9951 45.6543C26.1691 45.5243 25.4911 45.3865 24.7872 45.2622C24.1272 45.1456 23.4437 45.0409 22.8008 45.0409V46.5409ZM55.8008 37.0186L56.6793 38.2344C59.2168 36.4009 61.1939 35.1278 62.7647 34.2896C64.3484 33.4446 65.4292 33.0912 66.1907 33.0037C66.8877 32.9236 67.3267 33.0629 67.7132 33.3127C68.1686 33.607 68.6219 34.0997 69.2412 34.897C70.4309 36.4285 71.9961 38.7878 74.9237 40.7867C77.8776 42.8037 82.1184 44.4083 88.6973 44.8632L88.8008 43.3668L88.9043 41.8704C82.7331 41.4436 79.0364 39.9623 76.6154 38.3092C74.168 36.6381 72.9206 34.7432 71.6104 33.0565C70.9797 32.2447 70.2611 31.3873 69.3415 30.793C68.353 30.1542 67.2138 29.8664 65.8483 30.0233C64.5474 30.1728 63.0813 30.7203 61.3524 31.6429C59.6108 32.5722 57.5098 33.9332 54.9223 35.8028L55.8008 37.0186ZM88.8008 43.3668L88.6973 44.8632C95.174 45.3111 99.3921 44.7906 102.433 43.6206C105.527 42.4301 107.255 40.6194 108.793 38.9009C110.321 37.1944 111.624 35.6384 113.98 34.3723C116.34 33.1038 119.878 32.075 125.866 31.8164L125.801 30.3178L125.736 28.8192C119.474 29.0896 115.449 30.1768 112.559 31.7297C109.665 33.2851 108.03 35.2559 106.558 36.8997C105.097 38.5318 103.762 39.895 101.356 40.8207C98.897 41.7667 95.1776 42.3042 88.9043 41.8704L88.8008 43.3668ZM125.801 30.3178L125.866 31.8164C132.081 31.548 135.74 30.6275 138.013 29.4514C139.17 28.8532 139.962 28.192 140.542 27.5325C141.103 26.8937 141.446 26.2673 141.645 25.9387C141.893 25.531 141.869 25.6871 141.675 25.7601C141.511 25.8219 141.563 25.7045 142.276 25.9397C143.674 26.4005 146.281 27.7275 151.591 30.581L152.301 29.2597L153.011 27.9385C147.821 25.1491 144.927 23.6548 143.216 23.0905C142.375 22.8132 141.47 22.6325 140.62 22.9519C139.74 23.2825 139.302 24.0172 139.081 24.381C138.812 24.8239 138.631 25.1618 138.288 25.5522C137.964 25.9217 137.471 26.3544 136.635 26.7867C134.925 27.6715 131.771 28.5586 125.736 28.8192L125.801 30.3178ZM152.301 29.2597L151.591 30.581C157.074 33.5276 161.07 33.996 164.641 33.1858C166.376 32.7919 167.942 32.1107 169.437 31.3834C170.979 30.6327 172.356 29.8816 173.964 29.1796C177.053 27.8305 180.708 26.8072 186.09 27.4269C191.528 28.053 198.809 30.3663 209.093 35.8722L209.801 34.5498L210.509 33.2274C200.043 27.6239 192.386 25.132 186.433 24.4466C180.425 23.7548 176.236 24.9138 172.763 26.4302C171.09 27.1609 169.505 28.0135 168.124 28.6859C166.694 29.3817 165.374 29.9432 163.977 30.2602C161.282 30.8717 158.028 30.6347 153.011 27.9385L152.301 29.2597ZM209.801 34.5498L209.041 35.843C210.38 36.6301 212.829 37.2267 216.13 37.0529C219.476 36.8766 223.793 35.9067 228.949 33.4335L228.301 32.0811L227.652 30.7286C222.808 33.0518 218.876 33.9041 215.972 34.057C213.023 34.2123 211.222 33.6451 210.561 33.2567L209.801 34.5498ZM228.301 32.0811L228.949 33.4335C231.906 32.0154 235.699 30.9643 240.302 30.0063C244.904 29.0483 250.181 28.2083 256.122 27.1662C267.964 25.0891 282.204 22.2477 297.842 16.1988L297.301 14.7998L296.76 13.4008C281.398 19.3429 267.387 22.1445 255.604 24.2113C249.733 25.2412 244.354 26.0984 239.69 27.0692C235.027 28.0399 230.945 29.149 227.652 30.7286L228.301 32.0811Z" fill="#D283F2"/>
</g>
<defs>
<filter id="filter0_d_4666_750" x="4.30078" y="14.7998" width="297" height="87" filterUnits="userSpaceOnUse" color-interpolation-filters="sRGB">
<feFlood flood-opacity="0" result="BackgroundImageFix"/>
<feColorMatrix in="SourceAlpha" type="matrix" values="0 0 0 0 0 0 0 0 0 0 0 0 0 0 0 0 0 0 127 0" result="hardAlpha"/>
<feOffset dy="4"/>
<feGaussianBlur stdDeviation="2"/>
<feComposite in2="hardAlpha" operator="out"/>
<feColorMatrix type="matrix" values="0 0 0 0 0 0 0 0 0 0 0 0 0 0 0 0 0 0 0.25 0"/>
<feBlend mode="normal" in2="BackgroundImageFix" result="effect1_dropShadow_4666_750"/>
<feBlend mode="normal" in="SourceGraphic" in2="effect1_dropShadow_4666_750" result="shape"/>
</filter>
<filter id="filter1_f_4666_750" x="0.000781059" y="-0.000195503" width="312.1" height="60.1317" filterUnits="userSpaceOnUse" color-interpolation-filters="sRGB">
<feFlood flood-opacity="0" result="BackgroundImageFix"/>
<feBlend mode="normal" in="SourceGraphic" in2="BackgroundImageFix" result="shape"/>
<feGaussianBlur stdDeviation="3.4" result="effect1_foregroundBlur_4666_750"/>
</filter>
<filter id="filter2_d_4666_750" x="2.80078" y="6.7998" width="306.5" height="54.5317" filterUnits="userSpaceOnUse" color-interpolation-filters="sRGB">
<feFlood flood-opacity="0" result="BackgroundImageFix"/>
<feColorMatrix in="SourceAlpha" type="matrix" values="0 0 0 0 0 0 0 0 0 0 0 0 0 0 0 0 0 0 127 0" result="hardAlpha"/>
<feOffset dy="4"/>
<feGaussianBlur stdDeviation="2"/>
<feComposite in2="hardAlpha" operator="out"/>
<feColorMatrix type="matrix" values="0 0 0 0 0 0 0 0 0 0 0 0 0 0 0 0 0 0 0.25 0"/>
<feBlend mode="normal" in2="BackgroundImageFix" result="effect1_dropShadow_4666_750"/>
<feBlend mode="normal" in="SourceGraphic" in2="effect1_dropShadow_4666_750" result="shape"/>
</filter>
<linearGradient id="paint0_linear_4666_750" x1="152.801" y1="14.7998" x2="152.801" y2="93.7998" gradientUnits="userSpaceOnUse">
<stop stop-color="#420BB0"/>
<stop offset="1" stop-color="#420BB0" stop-opacity="0"/>
</linearGradient>
</defs>
</svg>
