<svg width="403" height="500" viewBox="0 0 403 500" fill="none" xmlns="http://www.w3.org/2000/svg">
<g filter="url(#filter0_f_4172_24496)">
<path d="M183.141 439.8C140.645 433.454 52.2836 398.739 60.3121 303.179C61.0555 282.026 75.3511 231.882 98.0242 202.02C120.697 172.157 120.697 166.558 120.697 161.706C123.411 176.572 127.206 209.645 120.782 223.491C128.93 206.195 154.731 162.545 193.549 124.751C232.502 86.8253 209.779 65.6479 193.549 59.7998C222.169 67.8876 275.841 114.971 261.568 238.601C274.329 232.256 297.919 209.038 290.188 166.931C318.189 198.287 365.418 281.454 330.331 363.277C308.327 411.953 266.152 432.334 247.816 436.44C263.798 411.43 288.925 353.049 261.568 319.603C256.364 328.811 243.207 346.554 232.205 343.867C218.452 340.507 189.088 312.884 201.354 249.8C164.433 280.533 109.101 361.56 183.141 439.8Z" fill="#FF7A00"/>
</g>
<g filter="url(#filter1_ii_4172_24496)">
<path d="M183.141 439.8C140.645 433.454 52.2836 398.739 60.3121 303.179C61.0555 282.026 75.3511 231.882 98.0242 202.02C120.697 172.157 120.697 166.558 120.697 161.706C123.411 176.572 127.206 209.645 120.782 223.491C128.93 206.195 154.731 162.545 193.549 124.751C232.502 86.8253 209.779 65.6479 193.549 59.7998C222.169 67.8876 275.841 114.971 261.568 238.601C274.329 232.256 297.919 209.038 290.188 166.931C318.189 198.287 365.418 281.454 330.331 363.277C308.327 411.953 266.152 432.334 247.816 436.44C263.798 411.43 288.925 353.049 261.568 319.603C256.364 328.811 243.207 346.554 232.205 343.867C218.452 340.507 189.088 312.884 201.354 249.8C164.433 280.533 109.101 361.56 183.141 439.8Z" fill="url(#paint0_linear_4172_24496)"/>
</g>
<defs>
<filter id="filter0_f_4172_24496" x="-0.00019455" y="-0.00019455" width="402.6" height="499.6" filterUnits="userSpaceOnUse" color-interpolation-filters="sRGB">
<feFlood flood-opacity="0" result="BackgroundImageFix"/>
<feBlend mode="normal" in="SourceGraphic" in2="BackgroundImageFix" result="shape"/>
<feGaussianBlur stdDeviation="29.9" result="effect1_foregroundBlur_4172_24496"/>
</filter>
<filter id="filter1_ii_4172_24496" x="59.7998" y="59.7998" width="283" height="380" filterUnits="userSpaceOnUse" color-interpolation-filters="sRGB">
<feFlood flood-opacity="0" result="BackgroundImageFix"/>
<feBlend mode="normal" in="SourceGraphic" in2="BackgroundImageFix" result="shape"/>
<feColorMatrix in="SourceAlpha" type="matrix" values="0 0 0 0 0 0 0 0 0 0 0 0 0 0 0 0 0 0 127 0" result="hardAlpha"/>
<feOffset/>
<feGaussianBlur stdDeviation="14.7"/>
<feComposite in2="hardAlpha" operator="arithmetic" k2="-1" k3="1"/>
<feColorMatrix type="matrix" values="0 0 0 0 1 0 0 0 0 1 0 0 0 0 1 0 0 0 1 0"/>
<feBlend mode="normal" in2="shape" result="effect1_innerShadow_4172_24496"/>
<feColorMatrix in="SourceAlpha" type="matrix" values="0 0 0 0 0 0 0 0 0 0 0 0 0 0 0 0 0 0 127 0" result="hardAlpha"/>
<feOffset/>
<feGaussianBlur stdDeviation="8.65"/>
<feComposite in2="hardAlpha" operator="arithmetic" k2="-1" k3="1"/>
<feColorMatrix type="matrix" values="0 0 0 0 1 0 0 0 0 1 0 0 0 0 1 0 0 0 1 0"/>
<feBlend mode="normal" in2="effect1_innerShadow_4172_24496" result="effect2_innerShadow_4172_24496"/>
</filter>
<linearGradient id="paint0_linear_4172_24496" x1="201.3" y1="59.7998" x2="201.3" y2="439.8" gradientUnits="userSpaceOnUse">
<stop stop-color="#FFAF66"/>
<stop offset="1" stop-color="#FF7A00"/>
</linearGradient>
</defs>
</svg>
