<svg width="30" height="30" viewBox="0 0 30 30" fill="none" xmlns="http://www.w3.org/2000/svg">
<path d="M22.8574 22.2305C23.2611 22.8994 23.3679 23.453 23.2529 23.998C23.109 24.6801 22.6015 25.4535 21.5908 26.4678C21.0053 27.0553 20.1574 27.5485 19.1758 27.9551C18.1992 28.3595 17.121 28.6664 16.1025 28.8955C14.5743 29.2393 13.2044 29.4037 12.5586 29.4688L12.1748 29.5039C12.1137 29.5086 12.0492 29.4859 12.001 29.4375C11.953 29.3893 11.9302 29.3245 11.9346 29.2617C11.9412 29.1774 12.0763 27.4457 12.5225 25.4102C12.6639 25.3938 12.8062 25.3788 12.9453 25.3604C13.0598 25.3452 13.175 25.3275 13.2871 25.3115L13.2881 25.3125C13.4389 25.2926 13.5889 25.2693 13.7314 25.2471C16.8205 24.7787 19.59 23.9295 21.9707 22.7148L21.9727 22.7139C22.1435 22.6261 22.3111 22.5365 22.4795 22.4453L22.4805 22.4463C22.5302 22.4196 22.5785 22.3916 22.6289 22.3623L22.6299 22.3633C22.7071 22.3207 22.7816 22.2738 22.8574 22.2305Z" stroke="currentColor"/>
<path d="M5.98828 6.88477C6.53002 6.76955 7.08098 6.87549 7.74707 7.28125C7.70511 7.35538 7.66151 7.42923 7.62012 7.50488C7.58857 7.55915 7.55967 7.61179 7.53125 7.66504C7.44009 7.83465 7.35142 8.00473 7.26367 8.17676V8.17773C6.05271 10.5666 5.20753 13.3424 4.74219 16.4375C4.7175 16.5852 4.69613 16.7355 4.67578 16.8779V16.8799C4.6597 16.9959 4.643 17.1132 4.62695 17.2295V17.2334C4.60854 17.3745 4.59139 17.5154 4.5752 17.6553C2.60054 18.0898 0.915604 18.2318 0.743164 18.2471C0.678342 18.2507 0.614425 18.2269 0.567383 18.1797C0.531309 18.1434 0.508769 18.0979 0.501953 18.0508L0.500977 18.0029C0.511183 17.8677 0.650304 16.1062 1.10742 14.0615C1.33596 13.0393 1.64158 11.9569 2.04492 10.9766C2.45037 9.99115 2.94267 9.1395 3.52832 8.55176C4.53903 7.53775 5.30977 7.02911 5.98828 6.88477Z" stroke="currentColor"/>
<path d="M28.9258 0.508789H28.9268C29.0823 0.512029 29.2217 0.576771 29.3232 0.678711C29.4258 0.781753 29.4889 0.920149 29.4922 1.07812V1.0791C29.5149 2.08178 29.5022 3.50729 29.3506 5.15527C28.3685 4.71524 27.4665 4.09621 26.6943 3.32129C25.9223 2.54642 25.304 1.64019 24.8652 0.652344C26.5077 0.499418 27.9275 0.48554 28.9258 0.508789Z" stroke="currentColor"/>
<path d="M22.1426 1.02002C22.7179 2.58533 23.625 4.01431 24.8125 5.20654C25.9995 6.39823 27.4246 7.31 28.9854 7.8833C28.3358 11.5697 26.9249 15.6856 23.9629 18.6587C22.9518 19.6733 21.7428 20.5686 20.3643 21.3198C18.1518 22.5245 15.4964 23.3719 12.4521 23.8315C12.3782 23.2218 12.131 22.6578 11.7891 22.1274C11.3394 21.4302 10.7039 20.7557 10.0283 20.0776C9.34847 19.3954 8.67236 18.7532 7.97168 18.3013C7.43812 17.9571 6.86952 17.7092 6.25488 17.6411C6.68296 14.7762 7.45053 12.2492 8.53418 10.1138L8.76465 9.67432C9.51181 8.28976 10.4039 7.07581 11.415 6.06104C14.3753 3.09029 18.4733 1.67211 22.1426 1.02002ZM21.5791 8.45654C19.9243 6.79533 17.2412 6.7954 15.5859 8.45654C13.9322 10.1165 13.9305 12.8069 15.585 14.4673C17.2403 16.1284 19.9258 16.1285 21.5811 14.4673C23.2356 12.8068 23.2331 10.1165 21.5791 8.45654Z" stroke="currentColor"/>
<path d="M5.81445 20.1924C5.92727 20.1749 6.05722 20.1841 6.24023 20.2607C6.64767 20.4314 7.22693 20.8904 8.2207 21.8877C9.21003 22.8806 9.66824 23.46 9.8418 23.8682C9.92006 24.0524 9.93156 24.183 9.91602 24.2949C9.89922 24.4157 9.84519 24.5562 9.73047 24.7539C9.67746 24.8417 9.61739 24.934 9.54785 25.0332C9.34101 25.3202 9.04551 25.6591 8.64355 26.0625C8.60385 26.1024 8.5608 26.1423 8.51465 26.1836L8.5127 26.1855C7.79862 26.8262 6.63043 27.3324 5.34766 27.7158C4.07995 28.0947 2.76353 28.3361 1.80566 28.4785C1.76423 28.4847 1.72611 28.4732 1.69434 28.4414C1.66539 28.4124 1.65176 28.3731 1.6582 28.3271C1.79915 27.3721 2.03622 26.0627 2.40918 24.7988C2.76281 23.6005 3.22264 22.4975 3.7998 21.7666L3.92676 21.6143C3.96652 21.5659 4.01222 21.5163 4.06543 21.4629C4.45743 21.0695 4.78716 20.7782 5.06836 20.5703L5.06934 20.5713C5.16443 20.5022 5.25142 20.4447 5.33398 20.3965L5.34082 20.3936C5.54578 20.2699 5.69063 20.2116 5.81445 20.1924Z" stroke="currentColor"/>
</svg>
