<svg width="42" height="47" viewBox="0 0 42 47" fill="none" xmlns="http://www.w3.org/2000/svg">
<path d="M30.2349 18.593H29.2104V14.1084C29.2104 13.0144 28.993 11.9523 28.5647 10.9518C28.1509 9.98591 27.5594 9.11918 26.8055 8.37467C26.052 7.63051 25.174 7.04603 24.196 6.6377C23.1829 6.21467 22.1074 6 21 6C19.8926 6 18.8171 6.21467 17.8036 6.6377C16.826 7.04603 15.948 7.63051 15.1941 8.37467C14.4406 9.11918 13.8488 9.98626 13.4353 10.9518C13.0066 11.9526 12.7896 13.0147 12.7896 14.1084V18.593H11.7648C9.68577 18.593 8 20.2578 8 22.3114V38.282C8 40.3352 9.68577 42 11.7648 42H30.2349C32.3142 42 34 40.3352 34 38.282V22.3114C34 20.2578 32.3142 18.593 30.2349 18.593ZM22.211 31.4133V34.1714C22.211 34.8319 21.6688 35.367 21.0004 35.367C20.3319 35.367 19.7898 34.8315 19.7898 34.1714V31.4133C18.5947 30.9395 17.7512 29.7845 17.7512 28.4349C17.7512 26.6629 19.2061 25.2264 21.0004 25.2264C22.7946 25.2264 24.2492 26.6629 24.2492 28.4349C24.2492 29.7842 23.406 30.9395 22.211 31.4133ZM25.6818 18.593H16.3182V14.1084C16.3182 12.8736 16.8054 11.7124 17.6895 10.8393C18.5738 9.96595 19.7493 9.48514 20.9996 9.48514C22.25 9.48514 23.4258 9.9663 24.3102 10.8393C25.1946 11.7127 25.6814 12.8736 25.6814 14.1084V18.593H25.6818Z" fill="#14B8A6" fill-opacity="0.85"/>
<path d="M21 6.5C22.0416 6.5 23.0515 6.70144 24.0029 7.09863C24.9217 7.48226 25.7462 8.0314 26.4541 8.73047C27.1623 9.42986 27.7173 10.2425 28.1055 11.1484C28.5071 12.0864 28.71 13.0818 28.71 14.1084V19.0928H30.2344C32.0435 19.0928 33.5 20.54 33.5 22.3115V38.2822C33.4999 40.0533 32.0435 41.5 30.2344 41.5H11.7646C9.95601 41.4999 8.50013 40.0532 8.5 38.2822V22.3115C8.5 20.54 9.95595 19.0928 11.7646 19.0928H13.29V14.1084C13.29 13.082 13.4926 12.0867 13.8945 11.1484C14.2823 10.2429 14.837 9.42897 15.5449 8.72949C16.2531 8.03047 17.0777 7.48221 17.9961 7.09863C18.948 6.70128 19.9582 6.5 21 6.5ZM21 24.7266C18.9358 24.7268 17.2511 26.3808 17.251 28.4346C17.251 29.8762 18.0826 31.1198 19.29 31.7334V34.1719C19.2903 35.1137 20.0617 35.867 21 35.8672C21.9384 35.8672 22.7107 35.1142 22.7109 34.1719V31.7334C23.9183 31.1197 24.749 29.8757 24.749 28.4346C24.7489 26.3807 23.0644 24.7266 21 24.7266ZM21 8.98535C19.6191 8.98535 18.3165 9.51696 17.3379 10.4834C16.3595 11.4497 15.8184 12.7389 15.8184 14.1084V19.0928H25.6816V18.5928H26.1816V14.1084C26.1816 12.739 25.6399 11.45 24.6611 10.4834C23.6827 9.51763 22.3807 8.98544 21 8.98535Z" stroke="#7AE7DB" stroke-opacity="0.85"/>
</svg>
