<svg width="76" height="86" viewBox="0 0 76 86" fill="none" xmlns="http://www.w3.org/2000/svg">
<g filter="url(#filter0_d_6720_21237)">
<path d="M47.2349 37.593H46.2104V33.1084C46.2104 32.0144 45.993 30.9523 45.5647 29.9518C45.1509 28.9859 44.5594 28.1192 43.8055 27.3747C43.052 26.6305 42.174 26.046 41.196 25.6377C40.1829 25.2147 39.1074 25 38 25C36.8926 25 35.8171 25.2147 34.8036 25.6377C33.826 26.046 32.948 26.6305 32.1941 27.3747C31.4406 28.1192 30.8488 28.9863 30.4353 29.9518C30.0066 30.9526 29.7896 32.0147 29.7896 33.1084V37.593H28.7648C26.6858 37.593 25 39.2578 25 41.3114V57.282C25 59.3352 26.6858 61 28.7648 61H47.2349C49.3142 61 51 59.3352 51 57.282V41.3114C51 39.2578 49.3142 37.593 47.2349 37.593ZM39.211 50.4133V53.1714C39.211 53.8319 38.6688 54.367 38.0004 54.367C37.3319 54.367 36.7898 53.8315 36.7898 53.1714V50.4133C35.5947 49.9395 34.7512 48.7845 34.7512 47.4349C34.7512 45.6629 36.2061 44.2264 38.0004 44.2264C39.7946 44.2264 41.2492 45.6629 41.2492 47.4349C41.2492 48.7842 40.406 49.9395 39.211 50.4133ZM42.6818 37.593H33.3182V33.1084C33.3182 31.8736 33.8054 30.7124 34.6895 29.8393C35.5738 28.966 36.7493 28.4851 37.9996 28.4851C39.25 28.4851 40.4258 28.9663 41.3102 29.8393C42.1946 30.7127 42.6814 31.8736 42.6814 33.1084V37.593H42.6818Z" fill="#14B8A6" fill-opacity="0.85" shape-rendering="crispEdges"/>
<path d="M38 25.5C39.0416 25.5 40.0515 25.7014 41.0029 26.0986C41.9217 26.4823 42.7462 27.0314 43.4541 27.7305C44.1623 28.4299 44.7173 29.2425 45.1055 30.1484C45.5071 31.0864 45.71 32.0818 45.71 33.1084V38.0928H47.2344C49.0435 38.0928 50.5 39.54 50.5 41.3115V57.2822C50.4999 59.0533 49.0435 60.5 47.2344 60.5H28.7646C26.956 60.4999 25.5001 59.0532 25.5 57.2822V41.3115C25.5 39.54 26.956 38.0928 28.7646 38.0928H30.29V33.1084C30.29 32.082 30.4926 31.0867 30.8945 30.1484C31.2823 29.2429 31.837 28.429 32.5449 27.7295C33.2531 27.0305 34.0777 26.4822 34.9961 26.0986C35.948 25.7013 36.9582 25.5 38 25.5ZM38 43.7266C35.9358 43.7268 34.2511 45.3808 34.251 47.4346C34.251 48.8762 35.0826 50.1198 36.29 50.7334V53.1719C36.2903 54.1137 37.0617 54.867 38 54.8672C38.9384 54.8672 39.7107 54.1142 39.7109 53.1719V50.7334C40.9183 50.1197 41.749 48.8757 41.749 47.4346C41.7489 45.3807 40.0644 43.7266 38 43.7266ZM38 27.9854C36.6191 27.9854 35.3165 28.517 34.3379 29.4834C33.3595 30.4497 32.8184 31.7389 32.8184 33.1084V38.0928H42.6816V37.5928H43.1816V33.1084C43.1816 31.739 42.6399 30.45 41.6611 29.4834C40.6827 28.5176 39.3807 27.9854 38 27.9854Z" stroke="#7AE7DB" stroke-opacity="0.85" shape-rendering="crispEdges"/>
</g>
<defs>
<filter id="filter0_d_6720_21237" x="0" y="0" width="76" height="86" filterUnits="userSpaceOnUse" color-interpolation-filters="sRGB">
<feFlood flood-opacity="0" result="BackgroundImageFix"/>
<feColorMatrix in="SourceAlpha" type="matrix" values="0 0 0 0 0 0 0 0 0 0 0 0 0 0 0 0 0 0 127 0" result="hardAlpha"/>
<feMorphology radius="5" operator="dilate" in="SourceAlpha" result="effect1_dropShadow_6720_21237"/>
<feOffset/>
<feGaussianBlur stdDeviation="10"/>
<feComposite in2="hardAlpha" operator="out"/>
<feColorMatrix type="matrix" values="0 0 0 0 0.0784314 0 0 0 0 0.721569 0 0 0 0 0.65098 0 0 0 0.878431 0"/>
<feBlend mode="normal" in2="BackgroundImageFix" result="effect1_dropShadow_6720_21237"/>
<feBlend mode="normal" in="SourceGraphic" in2="effect1_dropShadow_6720_21237" result="shape"/>
</filter>
</defs>
</svg>
